<?xml version="1.0" encoding="utf-8"?>
<!-- Generator: Adobe Illustrator 22.1.0, SVG Export Plug-In . SVG Version: 6.00 Build 0)  -->
<svg version="1.1" id="Layer_1" xmlns="http://www.w3.org/2000/svg" xmlns:xlink="http://www.w3.org/1999/xlink" x="0px" y="0px"
	 viewBox="0 0 345.2 157.3" style="enable-background:new 0 0 345.2 157.3;" xml:space="preserve">
<style type="text/css">
	.st0{fill:none;}
	.st1{fill:#5E5E5E;}
	.st2{font-family:'ArialMT';}
	.st3{font-size:4px;}
	.st4{fill:#B2B5B4;}
	.st5{fill:#797E7C;}
	.st6{opacity:0.4;fill:#85918D;enable-background:new    ;}
	.st7{fill:#ECECEC;}
	.st8{opacity:0.13;fill:#85918D;enable-background:new    ;}
	.st9{fill:#CFD0D0;}
	.st10{fill:#FFFFFF;}
	.st11{opacity:0.23;fill:#85918D;enable-background:new    ;}
	.st12{fill:#CFD0D0;stroke:#777E7C;stroke-width:0.48;stroke-linecap:round;stroke-miterlimit:10;}
	.st13{fill:none;stroke:#777E7C;stroke-width:0.48;stroke-linecap:round;stroke-miterlimit:10;}
	.st14{fill:#ECECEC;stroke:#777E7C;stroke-width:0.48;stroke-linecap:round;stroke-linejoin:bevel;}
	.st15{fill:none;stroke:#777E7C;stroke-width:0.58;stroke-linecap:round;stroke-linejoin:round;}
	.st16{fill:#7B807D;}
	.st17{fill:#7C807E;}
	.st18{opacity:0.4;fill:#C5C4C6;enable-background:new    ;}
	.st19{fill:#606261;}
	.st20{font-size:8.44px;}
	.st21{opacity:0.15;fill:#6A6E72;enable-background:new    ;}
	.st22{fill:#FFFFFF;stroke:#5E6060;stroke-width:2.41;stroke-miterlimit:10;}
	.st23{fill:none;stroke:#5E6060;stroke-width:0.54;stroke-linejoin:bevel;}
	.st24{fill:#5E6060;}
	.st25{fill:none;stroke:#5E6060;stroke-width:0.54;stroke-linecap:round;stroke-linejoin:bevel;}
	.st26{fill:#ECECEC;stroke:#5E6060;stroke-width:0.9;stroke-linejoin:bevel;}
	.st27{fill:#C1C1C1;}
	.st28{fill:#CFD0D0;stroke:#5E6060;stroke-width:0.9;stroke-linejoin:bevel;}
	.st29{fill:none;stroke:#5E6060;stroke-width:0.6;stroke-linecap:round;stroke-linejoin:bevel;}
	.st30{fill:#3FA9F5;fill-opacity:0.47;}
	.st31{fill:none;stroke:#5E6060;stroke-width:0.36;stroke-linecap:round;stroke-linejoin:bevel;stroke-dasharray:8.62;}
	.st32{fill:none;stroke:#5E6060;stroke-width:0.36;stroke-linecap:round;stroke-linejoin:bevel;}
	.st33{fill:#ECECEC;stroke:#5E6060;stroke-width:1.65;stroke-miterlimit:10;}
	.st34{fill:#C69C6D;stroke:#5E6060;stroke-width:0.9;stroke-linejoin:bevel;}
	.st35{opacity:0.13;fill:#B78767;enable-background:new    ;}
	.st36{opacity:0.32;fill:#85918D;enable-background:new    ;}
	.st37{fill:none;stroke:#6D6A69;stroke-width:0.54;stroke-miterlimit:10;}
	.st38{fill:none;stroke:#9B9B9B;stroke-width:0.54;stroke-miterlimit:10;}
	.st39{font-size:5px;}
	.st40{fill:#606362;}
	.st41{font-family:'Arial-BoldMT';}
	.st42{font-size:2.32px;}
	.st43{font-family:'MyriadPro-Regular';}
</style>
<title>web-design</title>
<g id="Description">
	<line class="st0" x1="31.5" y1="137.4" x2="85.6" y2="137.4"/>
	<text transform="matrix(1 0 0 1 31.5219 134.9511)" class="st1 st2 st3">AFFILI</text>
	<text transform="matrix(1 0 0 1 43.4819 134.9511)" class="st1 st2 st3">A</text>
	<text transform="matrix(1 0 0 1 46.0419 134.9511)" class="st1 st2 st3">TE </text>
	<text transform="matrix(1 0 0 1 51.7019 134.9511)" class="st1 st2 st3">P</text>
	<text transform="matrix(1 0 0 1 54.0419 134.9511)" class="st1 st2 st3">A</text>
	<text transform="matrix(1 0 0 1 56.8819 134.9511)" class="st1 st2 st3">R</text>
	<text transform="matrix(1 0 0 1 59.4519 134.9511)" class="st1 st2 st3">TNERS</text>
</g>
<rect x="16.3" y="143.4" class="st4" width="3.4" height="3.4"/>
<path class="st5" d="M20,147.1h-3.9v-3.9H20V147.1z M16.6,146.6h3v-3h-3L16.6,146.6z"/>
<rect x="18.5" y="143.7" class="st6" width="1" height="3"/>
<path class="st7" d="M18,131.6c-3.2,0-5.9,2.6-6,5.8c1.1,0,2.1,0.3,3,0.8c1.9-1.1,4.1-1.1,6,0c0.9-0.5,1.9-0.8,3-0.8
	C23.9,134.2,21.3,131.6,18,131.6z"/>
<path class="st5" d="M20.9,138.4c-1.8-1-4-1-5.8,0h-0.2c-0.9-0.5-1.9-0.8-2.9-0.8l-0.2-0.2c0.1-3.5,3.1-6.1,6.5-6
	c3.3,0.1,5.9,2.7,6,6l-0.2,0.2c-1,0-2,0.3-2.9,0.8H20.9z M12.3,137.2c1,0,1.9,0.3,2.8,0.8c1.9-1,4.1-1,6,0c0.8-0.5,1.8-0.7,2.8-0.8
	c-0.3-3.2-3.1-5.5-6.2-5.3C14.7,132.1,12.5,134.4,12.3,137.2L12.3,137.2z"/>
<path class="st8" d="M14.7,137.4c-0.7-0.3-1.4-0.5-2.1-0.5c0.3-2.3,2-4.2,4.3-4.7C15.7,133.6,15,135.5,14.7,137.4z"/>
<path class="st8" d="M21.3,137.4c0.7-0.3,1.4-0.5,2.1-0.5c-0.3-2.3-2-4.2-4.3-4.7C20.3,133.6,21.1,135.5,21.3,137.4z"/>
<path class="st5" d="M18,143.7c-0.1,0-0.2,0-0.2-0.1l-3-5.2l0.4-0.2L18,143l2.8-4.9l0.4,0.2l-3,5.2C18.2,143.6,18.1,143.7,18,143.7z
	"/>
<rect x="14.8" y="136.2" transform="matrix(0.7077 -0.7065 0.7065 0.7077 -94.8275 51.6554)" class="st5" width="0.5" height="8.5"/>
<rect x="16.8" y="140.2" transform="matrix(0.7066 -0.7076 0.7076 0.7066 -93.1947 56.0813)" class="st5" width="8.5" height="0.5"/>
<line class="st0" x1="194.4" y1="140.4" x2="248.5" y2="140.4"/>
<text transform="matrix(1 0 0 1 185.6348 135.05)" class="st1 st2 st3">CLIENTS</text>
<text transform="matrix(1 0 0 1 201.6548 135.05)" class="st1 st2 st3"> </text>
<text transform="matrix(1 0 0 1 202.4448 135.05)" class="st1 st2 st3">A</text>
<text transform="matrix(1 0 0 1 205.2848 135.05)" class="st1 st2 st3">R</text>
<text transform="matrix(1 0 0 1 207.8648 135.05)" class="st1 st2 st3">CHIVE</text>
<g id="Image-2">
	<path class="st9" d="M174.6,132.6H165c-0.2,0-0.4,0.1-0.5,0.4l-2.4,8c-0.1,0.3,0.1,0.7,0.4,0.8c0.1,0,0.1,0,0.2,0h14.2
		c0.3,0,0.6-0.3,0.6-0.6c0-0.1,0-0.1,0-0.2l-2.4-8C175,132.8,174.8,132.6,174.6,132.6z"/>
	<path class="st5" d="M176.9,142h-14.2c-0.3,0-0.5-0.1-0.7-0.4c-0.2-0.2-0.2-0.5-0.1-0.8l2.4-8c0.1-0.3,0.4-0.5,0.7-0.5h9.6
		c0.3,0,0.6,0.2,0.7,0.5l2.4,8c0.1,0.5-0.1,0.9-0.6,1.1C177,142,177,142,176.9,142z M165,132.8c-0.1,0-0.2,0.1-0.3,0.2l-2.4,8
		c0,0.1,0,0.2,0.1,0.3c0.1,0.1,0.2,0.1,0.3,0.1h14.2c0.1,0,0.2-0.1,0.3-0.1c0.1-0.1,0.1-0.2,0.1-0.3l-2.4-8c0-0.1-0.1-0.2-0.3-0.2
		L165,132.8z"/>
	<path class="st10" d="M165.9,134.7h7.7c0.3,0,0.6,0.2,0.6,0.6l0,0v2c0,0.2-0.2,0.4-0.4,0.4l0,0h-8.1c-0.2,0-0.4-0.2-0.4-0.4l0,0v-2
		C165.4,135,165.6,134.7,165.9,134.7z"/>
	<path class="st5" d="M173.8,137.9h-8c-0.3,0-0.6-0.3-0.6-0.6v-2c0-0.4,0.4-0.8,0.8-0.8l0,0h7.7c0.4,0,0.8,0.4,0.8,0.8c0,0,0,0,0,0
		v2C174.4,137.6,174.2,137.9,173.8,137.9C173.8,137.9,173.8,137.9,173.8,137.9z M165.9,135c-0.2,0-0.3,0.1-0.3,0.3l0,0v2
		c0,0.1,0,0.1,0.1,0.1l0,0h8c0.1,0,0.1,0,0.1-0.1l0,0v-2c0-0.2-0.1-0.3-0.3-0.3c0,0,0,0,0,0H165.9z"/>
	<rect x="165.1" y="136.2" class="st11" width="9.2" height="1.8"/>
	<path class="st10" d="M165,136.7h9.4c0.3,0,0.6,0.3,0.6,0.6v0v2c0,0.2-0.2,0.4-0.4,0.4h-9.8c-0.2,0-0.4-0.2-0.4-0.4v-2
		C164.5,136.9,164.7,136.7,165,136.7z"/>
	<path class="st5" d="M174.7,139.9h-9.8c-0.3,0-0.6-0.3-0.6-0.6c0,0,0,0,0,0v-2c0-0.5,0.4-0.8,0.8-0.8h9.4c0.5,0,0.8,0.4,0.8,0.8v2
		C175.3,139.6,175,139.9,174.7,139.9z M165.1,137c-0.2,0-0.3,0.1-0.3,0.3c0,0,0,0,0,0v2c0,0.1,0,0.1,0.1,0.1l0,0h9.8
		c0.1,0,0.1,0,0.1-0.1l0,0v-2c0-0.2-0.1-0.3-0.3-0.3c0,0,0,0,0,0H165.1z"/>
	<rect x="164.3" y="138.2" class="st11" width="11" height="2.6"/>
	<path class="st10" d="M164.5,138.8H175c0.3,0,0.6,0.3,0.6,0.6v0v3.9c0,0.2-0.2,0.4-0.4,0.4h-10.9c-0.2,0-0.4-0.2-0.4-0.4v-3.9
		C163.9,139.1,164.2,138.9,164.5,138.8C164.5,138.8,164.5,138.8,164.5,138.8z"/>
	<path class="st5" d="M175.2,143.9h-10.9c-0.3,0-0.6-0.3-0.6-0.6c0,0,0,0,0,0v-3.9c0-0.5,0.4-0.8,0.8-0.8h0H175
		c0.5,0,0.8,0.4,0.8,0.8v0v3.9C175.8,143.7,175.6,143.9,175.2,143.9C175.2,143.9,175.2,143.9,175.2,143.9z M164.5,139.1
		c-0.2,0-0.3,0.1-0.3,0.3c0,0,0,0,0,0v3.9c0,0.1,0,0.1,0.1,0.1l0,0h10.9c0.1,0,0.1,0,0.1-0.1l0,0v-3.9c0-0.2-0.1-0.3-0.3-0.3H164.5z
		"/>
	<rect x="164.3" y="142.3" class="st8" width="11" height="3"/>
	<path class="st7" d="M177.4,140.8h-5.8c-0.4,0-0.7,0.3-0.7,0.7v0.4c0,0.5-0.3,0.9-0.8,1.1c-0.6,0.2-1.2-0.2-1.3-0.8
		c0-0.1,0-0.2,0-0.2v-0.5c0-0.4-0.3-0.7-0.7-0.7h-5.8c-0.2,0-0.4,0.2-0.4,0.4v5.4c0,0.2,0.2,0.4,0.4,0.4h15.2c0.2,0,0.4-0.2,0.4-0.4
		v-5.3C177.8,141,177.7,140.8,177.4,140.8C177.4,140.8,177.4,140.8,177.4,140.8z"/>
	<path class="st5" d="M177.3,141.3v5.1h-15v-5.1h5.7c0.1,0,0.2,0.1,0.2,0.2v0.4c0,0.9,0.7,1.5,1.5,1.5c0.1,0,0.3,0,0.4,0
		c0.7-0.2,1.1-0.8,1.1-1.5v-0.5c0-0.1,0.1-0.2,0.2-0.2L177.3,141.3 M177.4,140.8h-5.8c-0.4,0-0.7,0.3-0.7,0.7v0.4
		c0,0.5-0.3,0.9-0.8,1.1c-0.1,0-0.2,0-0.3,0c-0.6,0-1.1-0.5-1.1-1.1v-0.4c0-0.4-0.3-0.7-0.7-0.7h-5.8c-0.2,0-0.4,0.2-0.4,0.4v5.4
		c0,0.2,0.2,0.4,0.4,0.4h15.2c0.2,0,0.4-0.2,0.4-0.4v-5.3C177.8,141,177.6,140.8,177.4,140.8L177.4,140.8z"/>
	<rect x="162" y="144.9" class="st8" width="15.5" height="1.4"/>
	<path class="st5" d="M175.1,144.8c-0.6,0-1-0.4-1-1c0-0.6,0.4-1,1-1c0.5,0,1,0.4,1,0.9C176.1,144.4,175.7,144.8,175.1,144.8
		C175.1,144.8,175.1,144.8,175.1,144.8z M175.1,143.1c-0.4,0-0.7,0.3-0.7,0.7s0.3,0.7,0.7,0.7s0.7-0.3,0.7-0.7
		S175.5,143.1,175.1,143.1L175.1,143.1z"/>
</g>
<g id="Description-3">
	<text transform="matrix(1 0 0 1 108.3614 135.0848)" class="st1 st2 st3">CE</text>
	<text transform="matrix(1 0 0 1 113.2714 135.0848)" class="st1 st2 st3">R</text>
	<text transform="matrix(1 0 0 1 115.8514 135.0848)" class="st1 st2 st3">TIFIC</text>
	<text transform="matrix(1 0 0 1 125.6614 135.0848)" class="st1 st2 st3">A</text>
	<text transform="matrix(1 0 0 1 128.2214 135.0848)" class="st1 st2 st3">TIONS</text>
</g>
<g id="Image-3">
	<circle class="st12" cx="91.5" cy="134.4" r="1.6"/>
	<path class="st13" d="M99.9,132.8c0.9,0.1,1.5,0.8,1.4,1.7c-0.1,0.8-0.7,1.4-1.4,1.4"/>
	<path class="st12" d="M90,145.3c0.1,0.9-0.6,1.6-1.4,1.7c-0.9,0.1-1.6-0.6-1.7-1.4c0-0.1,0-0.2,0-0.3c0-0.9,0.7-1.6,1.6-1.6h0"/>
	<line class="st13" x1="91.5" y1="132.8" x2="99.9" y2="132.8"/>
	<line class="st13" x1="91.5" y1="135.9" x2="99.9" y2="135.9"/>
	<line class="st13" x1="88.4" y1="146.9" x2="96.8" y2="146.9"/>
	<path class="st14" d="M90,143.8h-1.6v0.6c0,0.6,0.4,1,1,1H90v-11.2"/>
	<path class="st13" d="M98.4,135.9v9.4c0,0.9-0.7,1.6-1.6,1.6l0,0"/>
	<line class="st15" x1="93.9" y1="142.7" x2="95.4" y2="142.7"/>
	<line class="st15" x1="92.5" y1="143.4" x2="96.8" y2="143.4"/>
	<line class="st15" x1="92.5" y1="144.2" x2="96.8" y2="144.2"/>
	<path class="st5" d="M95.5,139.6C95.5,139.6,95.5,139.7,95.5,139.6c-0.1,0.2-0.2,0.3-0.3,0.4c0,0-0.1,0-0.1,0c-0.1,0-0.2,0-0.3-0.1
		h-0.1h-0.1c-0.1,0.1-0.2,0.1-0.3,0.1c0,0-0.1,0-0.1,0c-0.1-0.1-0.2-0.2-0.3-0.3c0,0,0-0.1,0-0.1h-0.1l0,0v1.8l0.9-0.6l0.9,0.6v-1.8
		l0,0H95.5z"/>
	<path class="st5" d="M94.6,137.8c-0.3,0-0.6,0.3-0.6,0.6c0,0.3,0.2,0.6,0.6,0.6c0,0,0,0,0,0c0.3,0,0.6-0.3,0.6-0.6
		C95.2,138.1,95,137.9,94.6,137.8z"/>
	<path class="st5" d="M96,138.4c0-0.1-0.2-0.2-0.3-0.4s0.1-0.3,0-0.4s-0.3-0.1-0.4-0.1s-0.1-0.3-0.3-0.4s-0.3,0.1-0.4,0.1
		s-0.3-0.2-0.4-0.1s-0.2,0.3-0.3,0.4s-0.3,0-0.4,0.1s0,0.3,0,0.4s-0.2,0.2-0.2,0.4s0.2,0.2,0.2,0.4s-0.1,0.3,0,0.4s0.3,0.1,0.4,0.1
		s0.1,0.3,0.3,0.4s0.3-0.1,0.4-0.1s0.3,0.2,0.4,0.1s0.2-0.3,0.3-0.4s0.3,0,0.4-0.1s0-0.3,0-0.4S96,138.6,96,138.4z M94.6,139.2
		c-0.4,0-0.7-0.3-0.7-0.7s0.3-0.7,0.7-0.7l0,0c0.4,0,0.7,0.3,0.7,0.7S95,139.2,94.6,139.2z"/>
</g>
<text transform="matrix(1 0 0 1 278.3596 134.752)" class="st1 st2 st3">P</text>
<text transform="matrix(1 0 0 1 280.8997 134.752)" class="st1 st2 st3">R</text>
<text transform="matrix(1 0 0 1 283.4796 134.752)" class="st1 st2 st3">OFESSIONA</text>
<text transform="matrix(1 0 0 1 306.1797 134.752)" class="st1 st2 st3">L</text>
<text transform="matrix(1 0 0 1 308.1596 134.752)" class="st1 st2 st3"> SKILLS</text>
<g id="Image-4">
	
		<rect x="263.2" y="141.9" transform="matrix(0.9999 -1.176784e-02 1.176784e-02 0.9999 -1.6708 3.1214)" class="st4" width="2.4" height="3.3"/>
	<path class="st5" d="M265.9,145.4l-2.9,0l0-3.8l2.9,0L265.9,145.4z M263.5,145l1.9,0l0-2.8l-1.9,0L263.5,145z"/>
	<path class="st16" d="M268.9,146.7l-8.9,0.1c-0.1,0-0.2-0.1-0.2-0.2c0-0.1,0-0.2,0.1-0.2l3.1-1.4l2.8,0l3.1,1.3
		c0.1,0,0.1,0.1,0.1,0.2C269,146.6,269,146.7,268.9,146.7z M260.9,146.4l7.1-0.1l-2.3-1l-2.6,0L260.9,146.4z"/>
	
		<rect x="260" y="146.6" transform="matrix(0.9999 -1.176784e-02 1.176784e-02 0.9999 -1.7144 3.1222)" class="st9" width="8.9" height="1.4"/>
	<path class="st5" d="M269.1,148.2l-9.3,0.1l0-1.9l9.3-0.1L269.1,148.2z M260.3,147.8l8.4-0.1l0-0.9l-8.4,0.1L260.3,147.8z"/>
	<path class="st16" d="M260.5,141.4c-1.2-1-3.9-4-4-4.1l-0.1-0.1l0-3.5l2.9,0l0,0.6l-2.2,0l0,2.6c0.5,0.5,2.9,3.1,3.9,4L260.5,141.4
		z"/>
	<path class="st16" d="M268.1,141.3l-0.4-0.5c1-0.9,3.3-3.5,3.8-4l0-2.6l-2.2,0l0-0.6l2.5,0c0.2,0,0.3,0.1,0.3,0.3l0,3
		c0,0.1,0,0.2-0.1,0.2C271.9,137.2,269.2,140.2,268.1,141.3z"/>
	<path class="st7" d="M269.2,132.7c-3.3-0.5-6.7-0.5-10,0.1c0,0-1.5,7.6,3.9,10.4c0.8,0.4,1.7,0.4,2.4,0
		C271,140.3,269.2,132.7,269.2,132.7z"/>
	<path class="st17" d="M264.4,143.9c-0.5,0-0.9-0.1-1.4-0.3c-5.6-2.9-4.1-10.7-4.1-10.8c0-0.1,0.1-0.2,0.3-0.3
		c3.4-0.6,6.8-0.6,10.2-0.1c0.1,0,0.2,0.1,0.3,0.3c0,0.1,1.7,7.9-3.9,10.9C265.3,143.8,264.8,143.9,264.4,143.9z M259.6,133.1
		c-0.2,1.2-0.9,7.4,3.8,9.8c0.7,0.3,1.4,0.3,2.1,0c4.6-2.5,3.8-8.6,3.5-9.9C265.9,132.6,262.7,132.7,259.6,133.1z"/>
	<path class="st18" d="M264.3,133c1.5,0,3.1,0,4.6,0.3c0.2,1.4,0.9,7.3-3.5,9.7l0,0c-0.3,0.2-0.7,0.1-0.9-0.2
		c-0.1-0.1-0.1-0.2-0.1-0.4L264.3,133z"/>
</g>
<g id="Image-5">
	<text transform="matrix(1 0 0 1 238.2555 85.9897)" class="st19 st2 st20">WEB DEVELOPMENT</text>
	<g id="Content">
		<path class="st21" d="M345.2,70.3c-0.3,3.2-50.5,0.6-67.7,0.6s-67.6,0.3-67.7-0.6c-0.3-3.5,48.6-12.4,67.7-12.4
			S345.3,68.8,345.2,70.3z"/>
		<path class="st22" d="M236.7,1.2h78.7c1.2,0,2.1,1,2.1,2.1c0,0,0,0,0,0v52.2l0,0h-83l0,0V3.3C234.5,2.2,235.4,1.2,236.7,1.2
			C236.6,1.2,236.7,1.2,236.7,1.2z"/>
		<line class="st23" x1="235.3" y1="7.9" x2="316.8" y2="7.9"/>
		<path class="st24" d="M237.1,4.8c0-0.1,0-0.3,0.1-0.4c0.1-0.1,0.1-0.3,0.2-0.4c0.1-0.1,0.2-0.2,0.4-0.2c0.1-0.1,0.3-0.1,0.4-0.1
			c0.1,0,0.3,0,0.4,0.1c0.1,0,0.3,0.1,0.4,0.2c0.1,0.1,0.2,0.2,0.2,0.4c0.1,0.1,0.1,0.3,0.1,0.4c0,0.2,0,0.3-0.1,0.4
			c-0.1,0.1-0.1,0.2-0.2,0.3c-0.1,0.1-0.2,0.2-0.4,0.2c-0.1,0.1-0.3,0.1-0.4,0.1c-0.2,0-0.3,0-0.4-0.1c-0.1-0.1-0.3-0.1-0.4-0.2
			c-0.1-0.1-0.2-0.2-0.2-0.3C237.2,5.1,237.1,5,237.1,4.8z"/>
		<path class="st24" d="M240.9,4.8c0-0.1,0-0.3,0.1-0.4c0-0.1,0.1-0.3,0.2-0.4c0.1-0.1,0.2-0.2,0.4-0.2c0.3-0.1,0.6-0.1,0.9,0
			c0.1,0,0.3,0.1,0.4,0.2c0.1,0.1,0.2,0.2,0.2,0.4c0.1,0.1,0.1,0.3,0.1,0.4c0,0.2,0,0.3-0.1,0.4c-0.1,0.1-0.1,0.2-0.2,0.3
			c-0.1,0.1-0.2,0.2-0.4,0.2c-0.3,0.1-0.6,0.1-0.9,0c-0.1,0-0.3-0.1-0.4-0.2c-0.1-0.1-0.2-0.2-0.2-0.3C240.9,5.1,240.9,5,240.9,4.8z
			"/>
		<path class="st24" d="M244.7,4.8c0-0.1,0-0.3,0.1-0.4c0-0.1,0.1-0.3,0.2-0.4c0.1-0.1,0.2-0.2,0.4-0.2c0.1-0.1,0.3-0.1,0.4-0.1
			c0.2,0,0.3,0,0.4,0.1c0.1,0.1,0.3,0.1,0.4,0.2c0.1,0.1,0.2,0.2,0.2,0.4c0.1,0.1,0.1,0.3,0.1,0.4c0,0.2,0,0.3-0.1,0.4
			c-0.1,0.1-0.1,0.2-0.2,0.3c-0.1,0.1-0.2,0.2-0.4,0.2c-0.1,0.1-0.3,0.1-0.4,0.1c-0.1,0-0.3,0-0.4-0.1c-0.1,0-0.3-0.1-0.4-0.2
			c-0.1-0.1-0.2-0.2-0.2-0.3C244.7,5.1,244.7,5,244.7,4.8z"/>
		<line class="st25" x1="251.1" y1="4.8" x2="311.5" y2="4.8"/>
		<polygon class="st26" points="334,65 217.6,65 233.2,57.9 318.5,57.9 		"/>
		<path class="st27" d="M220,68.4h111.7l0,0l0,0c0,0.7-0.6,1.3-1.3,1.3l0,0h-109C220.6,69.8,220,69.2,220,68.4
			C220,68.5,220,68.4,220,68.4L220,68.4L220,68.4z"/>
		<path class="st28" d="M217.6,65H334l0,0v2.5c0,0.9-0.8,1.7-1.7,1.7h-113c-0.9,0-1.7-0.8-1.7-1.7L217.6,65L217.6,65z"/>
		<rect x="310.8" y="66.7" class="st29" width="17.6" height="0.2"/>
		<rect x="236" y="9.3" class="st30" width="55.1" height="21"/>
		<line class="st31" x1="280.2" y1="15.5" x2="271.5" y2="15.5"/>
		<line class="st32" x1="283.3" y1="19.7" x2="275.8" y2="19.7"/>
		<line class="st32" x1="277.2" y1="24.5" x2="273.7" y2="24.5"/>
		<path class="st33" d="M303.5,26.4"/>
		<path class="st33" d="M300.9,23.7"/>
		<rect x="236" y="31.7" class="st30" width="80.2" height="21"/>
		<path class="st34" d="M291,30.3h6.7c4.1,0,6.3-2.9,7.2-6.3s10,0.7,17.4,0.7c2.6,0,4.8-2.1,4.8-4.8c0-2.6-2.1-4.8-4.8-4.8
			c-7.4,0-16.5,4.1-17.4,0.7s-3.1-6.3-7.2-6.3H291V30.3z M323.9,19.9c0,0.8-0.7,1.5-1.5,1.5s-1.5-0.7-1.5-1.5c0-0.8,0.7-1.5,1.5-1.5
			c0,0,0,0,0,0C323.2,18.3,323.9,19,323.9,19.9z"/>
		<rect x="291.1" y="9.3" class="st35" width="2.2" height="20.8"/>
		<line class="st23" x1="236" y1="52.7" x2="316.2" y2="52.7"/>
		<line class="st23" x1="236" y1="31.6" x2="316.2" y2="31.6"/>
		<line class="st23" x1="291.1" y1="30.3" x2="236" y2="30.3"/>
		<line class="st23" x1="291" y1="9.5" x2="236" y2="9.5"/>
		<rect x="290.2" y="9.5" class="st36" width="1.1" height="20.8"/>
		<line class="st32" x1="286.8" y1="25.5" x2="291" y2="25.5"/>
		<line class="st32" x1="288.2" y1="24.1" x2="291" y2="24.1"/>
		<line class="st32" x1="286.8" y1="18.3" x2="291" y2="18.3"/>
		<line class="st32" x1="288.2" y1="19.7" x2="291" y2="19.7"/>
		<line class="st32" x1="288.2" y1="15.5" x2="291" y2="15.5"/>
	</g>
</g>
<g id="Skills">
	<g id="WebDesignIcon">
		<path class="st37" d="M25.2,89.6h15.6c0.8,0,1.5,0.7,1.5,1.5v10.7c0,0.8-0.7,1.5-1.5,1.5H25.2c-0.8,0-1.5-0.7-1.5-1.5V91.1
			C23.7,90.3,24.4,89.6,25.2,89.6z"/>
		<path class="st30" d="M41.3,93.6v8.2c0,0.2-0.2,0.4-0.4,0.4H25.2c-0.2,0-0.4-0.2-0.4-0.4v-8.2l0,0H41.3L41.3,93.6z"/>
		<polyline class="st37" points="30,106.2 30,103.3 36.1,103.3 36.1,106.2 		"/>
		<line class="st37" x1="28.3" y1="106" x2="37.7" y2="106"/>
		<line class="st37" x1="23.5" y1="92.7" x2="42.4" y2="92.7"/>
		<line class="st37" x1="25.6" y1="91.3" x2="36.4" y2="91.3"/>
		<line class="st37" x1="37.5" y1="91.3" x2="38.6" y2="91.3"/>
		<line class="st37" x1="39.3" y1="91.3" x2="40.5" y2="91.3"/>
	</g>
	<g id="GraphicIcon">
		<path class="st38" d="M25.7,7.4h15.6c0.8,0,1.5,0.7,1.5,1.5v13.3c0,0.8-0.7,1.5-1.5,1.5H25.7c-0.8,0-1.5-0.7-1.5-1.5V8.9
			C24.2,8,24.9,7.4,25.7,7.4z"/>
		<path class="st38" d="M25,23l8.2-7.2c0.6-0.5,1.5-0.5,2.1,0.1l7.1,7.3"/>
		<line class="st38" x1="31.1" y1="17.7" x2="37" y2="23.7"/>
		<path class="st7" d="M33.1,15.7c0.7-0.6,1.8-0.6,2.5,0.1l6.3,6.4l0,0V8.9c0-0.2-0.2-0.4-0.4-0.4H25.8c-0.2,0-0.4,0.2-0.4,0.4v13.3
			c0,0.1,0,0.1,0,0.2L33.1,15.7z"/>
	</g>
	<g id="WebDevIcon">
		<path class="st7" d="M41.2,48.3V59c0,0.2-0.2,0.4-0.4,0.4H25.1c-0.2,0-0.4-0.2-0.4-0.4V48.3c0-0.2,0.2-0.4,0.4-0.4h15.7
			C41,47.9,41.2,48.1,41.2,48.3z"/>
		<path class="st38" d="M25.1,46.8h15.6c0.8,0,1.5,0.7,1.5,1.5V59c0,0.8-0.7,1.5-1.5,1.5H25.1c-0.8,0-1.5-0.7-1.5-1.5V48.3
			C23.6,47.5,24.3,46.8,25.1,46.8z"/>
		<polyline class="st38" points="30,51.8 31.5,53.3 30,54.7 		"/>
		<line class="st38" x1="33.1" y1="54" x2="36" y2="54"/>
		<polyline class="st38" points="29.9,63.4 29.9,60.5 36,60.5 36,63.3 		"/>
		<line class="st38" x1="28.3" y1="63.2" x2="37.7" y2="63.2"/>
	</g>
	<g id="GraphicDesign">
		<text transform="matrix(1 0 0 1 49.1698 11.69)" class="st1 st2 st39">GRAPHIC DESIGN</text>
	</g>
	<g id="WebDevelopment">
		<text transform="matrix(1 0 0 1 52.1171 52.9503)" class="st40 st41 st42"> </text>
		<text transform="matrix(1 0 0 1 48.7818 48.6503)" class="st1 st2 st39">WEB DEVE</text>
		<text transform="matrix(1 0 0 1 74.5618 48.6503)" class="st1 st2 st39">L</text>
		<text transform="matrix(1 0 0 1 77.1018 48.6503)" class="st1 st2 st39">OPMEN</text>
		<text transform="matrix(1 0 0 1 95.9018 48.6503)" class="st1 st2 st39">T</text>
	</g>
	<g id="WebDesign">
		<text transform="matrix(1 0 0 1 48.8401 90.14)" class="st1 st2 st39">WEB DESIGN</text>
	</g>
</g>
<text transform="matrix(1 0 0 1 242.0148 94.97)"><tspan x="0" y="0" class="st43 st3">My work experience includes full-stack web </tspan><tspan x="0" y="4.8" class="st43 st3">development and mobile app design. </tspan></text>
<polygon class="st0" points="381.1,102 390.3,102 390.3,102 381.1,102 "/>
<text transform="matrix(1 0 0 1 48.6213 55.4999)"><tspan x="0" y="0" class="st43 st3">I created front-end UIs, back-end apps and websites using HTML, </tspan><tspan x="0" y="4.8" class="st43 st3">CSS, JS, Angular, React, WPF, Node.Js, Ruby Rails, MongoDB and </tspan><tspan x="0" y="9.6" class="st43 st3">PostGreSql.  Some examples are a loan service for automating </tspan><tspan x="0" y="14.4" class="st43 st3">processing applications, global hybrid cloud disaster recovery </tspan><tspan x="0" y="19.2" class="st43 st3">system, a multi-tenant PaaS/ SaaS networking tool and SEO tools.   </tspan></text>
<text transform="matrix(1 0 0 1 49.1001 97.9298)"><tspan x="0" y="0" class="st43 st3">I follow an agile design philosophy using sprint based planning </tspan><tspan x="0" y="4.8" class="st43 st3">and execution, following industry standards and applying object oriented design</tspan><tspan x="0" y="9.6" class="st43 st3">and analysis for developing websites.  My apps work cross-platform on Windows, </tspan><tspan x="0" y="14.4" class="st43 st3">MacOs/ IOS and Linux/ Unix environments.   </tspan></text>
<text transform="matrix(1 0 0 1 49.1701 17.7399)"><tspan x="0" y="0" class="st43 st3">I create original artwork for my websites including wireframes, web layouts,</tspan><tspan x="0" y="4.8" class="st43 st3">templates, icons and scenes for animation.  I bring the scenes to life by </tspan><tspan x="0" y="9.6" class="st43 st3">meticulously animating effects.  The end result is a beautiful, pixel-perfect </tspan><tspan x="0" y="14.4" class="st43 st3">transition that adds a lively flair to the content in bringing creative ideas to life. </tspan></text>
<text transform="matrix(1 0 0 1 31.0966 140.7143)"><tspan x="0" y="0" class="st43 st3">I volunteer for non-profit</tspan><tspan x="0" y="4.8" class="st43 st3">organizations and consultant </tspan><tspan x="0" y="9.6" class="st43 st3">for end-clients.</tspan></text>
<text transform="matrix(1 0 0 1 108.3614 140.7144)"><tspan x="0" y="0" class="st43 st3">I completed the Web </tspan><tspan x="0" y="4.8" class="st43 st3">Development Immersive</tspan><tspan x="0" y="9.6" class="st43 st3">course at General Assembly.</tspan></text>
<text transform="matrix(1 0 0 1 185.6352 140.3409)"><tspan x="0" y="0" class="st43 st3">My end-clients include Ellie Mae, </tspan><tspan x="0" y="4.8" class="st43 st3">Leidos Health, Philips Healcare Analytics, </tspan><tspan x="0" y="9.6" class="st43 st3">Microsoft, Cisco, and Blue Shield, CA.</tspan></text>
<text transform="matrix(1 0 0 1 278.3596 140.4361)"><tspan x="0" y="0" class="st43 st3">My skills are full-stack web </tspan><tspan x="0" y="4.8" class="st43 st3">development, QA, Data Science </tspan><tspan x="0" y="9.6" class="st43 st3">and Machine Learning. </tspan></text>
</svg>
