<svg id="Layer_1" data-name="Layer 1" xmlns="http://www.w3.org/2000/svg" viewBox="0 0 378.49 151.31"><defs><style>.cls-1,.cls-18,.cls-20,.cls-31,.cls-33,.cls-37,.cls-39,.cls-40,.cls-45,.cls-46{fill:none;}.cls-10,.cls-12,.cls-13,.cls-16,.cls-2,.cls-21,.cls-23,.cls-26,.cls-27,.cls-29,.cls-3,.cls-4,.cls-43,.cls-44,.cls-47,.cls-48,.cls-49,.cls-5,.cls-50,.cls-6,.cls-7{isolation:isolate;}.cls-13,.cls-21,.cls-23,.cls-3,.cls-4,.cls-5,.cls-51,.cls-6,.cls-7{font-size:4px;}.cls-13,.cls-21,.cls-23,.cls-3,.cls-4,.cls-47,.cls-49,.cls-5,.cls-50,.cls-6,.cls-7{fill:#5e5e5e;}.cls-13,.cls-21,.cls-23,.cls-27,.cls-3,.cls-4,.cls-47,.cls-49,.cls-5,.cls-50,.cls-6,.cls-7{font-family:ArialMT, Arial;}.cls-4{letter-spacing:-0.13em;}.cls-5{letter-spacing:-0.07em;}.cls-22,.cls-6{letter-spacing:-0.06em;}.cls-53,.cls-7{letter-spacing:-0.01em;}.cls-8{fill:#b2b5b4;}.cls-9{fill:#797e7c;}.cls-10,.cls-12,.cls-16,.cls-44{fill:#85918d;}.cls-10,.cls-26{opacity:0.4;}.cls-11,.cls-19,.cls-34,.cls-41{fill:#ececec;}.cls-12,.cls-43{opacity:0.13;}.cls-13{letter-spacing:-0.03em;}.cls-14,.cls-17,.cls-36{fill:#cfd0d0;}.cls-15,.cls-30{fill:#fff;}.cls-16{opacity:0.23;}.cls-17,.cls-18,.cls-19,.cls-20{stroke:#777e7c;}.cls-17,.cls-18,.cls-19,.cls-20,.cls-33,.cls-37,.cls-39,.cls-40{stroke-linecap:round;}.cls-17,.cls-18,.cls-30,.cls-41,.cls-45,.cls-46{stroke-miterlimit:10;}.cls-17,.cls-18,.cls-19{stroke-width:0.48px;}.cls-19,.cls-31,.cls-33,.cls-34,.cls-36,.cls-37,.cls-39,.cls-40,.cls-42{stroke-linejoin:bevel;}.cls-20{stroke-linejoin:round;stroke-width:0.58px;}.cls-21{letter-spacing:-0.02em;}.cls-23{letter-spacing:-0.07em;}.cls-24{fill:#7b807d;}.cls-25{fill:#7c807e;}.cls-26{fill:#c5c4c6;}.cls-27{font-size:8.44px;fill:#606261;}.cls-28{letter-spacing:-0.02em;}.cls-29{fill:#6a6e72;opacity:0.15;}.cls-30,.cls-31,.cls-33,.cls-34,.cls-36,.cls-37,.cls-39,.cls-40,.cls-41,.cls-42{stroke:#5e6060;}.cls-30{stroke-width:2.41px;}.cls-31,.cls-33,.cls-45,.cls-46{stroke-width:0.54px;}.cls-32{fill:#5e6060;}.cls-34,.cls-36,.cls-42{stroke-width:0.9px;}.cls-35{fill:#c1c1c1;}.cls-37{stroke-width:0.6px;}.cls-38{fill:#3fa9f5;fill-opacity:0.47;}.cls-39,.cls-40{stroke-width:0.36px;}.cls-39{stroke-dasharray:8.62;}.cls-41{stroke-width:1.65px;}.cls-42{fill:#c69c6d;}.cls-43{fill:#b78767;}.cls-44{opacity:0.32;}.cls-45{stroke:#6d6a69;}.cls-46{stroke:#9b9b9b;}.cls-47,.cls-49,.cls-50{font-size:5px;}.cls-48{font-size:2.32px;fill:#606362;font-family:Arial-BoldMT, Arial;font-weight:700;}.cls-49{letter-spacing:-0.06em;}.cls-50{letter-spacing:-0.05em;}.cls-51{font-family:MyriadPro-Regular, Myriad Pro;}.cls-52{letter-spacing:0.01em;}.cls-54{letter-spacing:0em;}.cls-55{letter-spacing:0em;}.cls-56{letter-spacing:0em;}.cls-57{letter-spacing:-0.01em;}.cls-58{letter-spacing:0em;}.cls-59{letter-spacing:-0.01em;}.cls-60{letter-spacing:0em;}.cls-61{letter-spacing:0em;}.cls-62{letter-spacing:-0.01em;}.cls-63{letter-spacing:0.02em;}.cls-64{letter-spacing:-0.01em;}.cls-65{letter-spacing:0.02em;}.cls-66{letter-spacing:0em;}.cls-67{letter-spacing:-0.05em;}.cls-68{letter-spacing:0em;}.cls-69{letter-spacing:0em;}.cls-70{letter-spacing:0.01em;}.cls-71{letter-spacing:0em;}.cls-72{letter-spacing:-0.04em;}.cls-73{letter-spacing:-0.1em;}.cls-74{letter-spacing:-0.01em;}.cls-75{letter-spacing:-0.01em;}.cls-76{letter-spacing:0.01em;}.cls-77{letter-spacing:0.01em;}.cls-78{letter-spacing:-0.03em;}.cls-79{letter-spacing:0.03em;}.cls-80{letter-spacing:-0.01em;}.cls-81{letter-spacing:-0.03em;}.cls-82{letter-spacing:0em;}.cls-83{letter-spacing:0.01em;}.cls-84{letter-spacing:-0.01em;}.cls-85{letter-spacing:0.02em;}.cls-86{letter-spacing:-0.01em;}.cls-87{letter-spacing:-0.02em;}.cls-88{letter-spacing:-0.01em;}.cls-89{letter-spacing:0.02em;}.cls-90{letter-spacing:-0.02em;}.cls-91{letter-spacing:-0.01em;}.cls-92{letter-spacing:0.02em;}.cls-93{letter-spacing:0.01em;}.cls-94{letter-spacing:-0.01em;}.cls-95{letter-spacing:-0.01em;}.cls-96{letter-spacing:-0.01em;}.cls-97{letter-spacing:-0.04em;}.cls-98{letter-spacing:0.03em;}.cls-99{letter-spacing:0.01em;}.cls-100{letter-spacing:-0.01em;}.cls-101{letter-spacing:0em;}.cls-102{letter-spacing:-0.01em;}.cls-103{letter-spacing:-0.03em;}.cls-104{letter-spacing:0.01em;}.cls-105{letter-spacing:0.01em;}.cls-106{letter-spacing:-0.04em;}.cls-107{letter-spacing:0.01em;}.cls-108{letter-spacing:-0.01em;}.cls-109{letter-spacing:0em;}.cls-110{letter-spacing:-0.01em;}.cls-111{letter-spacing:0.01em;}.cls-112{letter-spacing:0.01em;}.cls-113{letter-spacing:-0.02em;}.cls-114{letter-spacing:0em;}.cls-115{letter-spacing:0.02em;}.cls-116{letter-spacing:0.01em;}.cls-117{letter-spacing:0em;}.cls-118{letter-spacing:-0.02em;}</style></defs><title>web-design</title><g id="Description"><line class="cls-1" x1="19.74" y1="137.4" x2="73.86" y2="137.4"/><g class="cls-2"><text class="cls-3" transform="translate(19.74 134.95)">AFFILI</text><text class="cls-4" transform="translate(31.7 134.95)">A</text><text class="cls-3" transform="translate(34.26 134.95)">TE </text><text class="cls-5" transform="translate(39.92 134.95)">P</text><text class="cls-6" transform="translate(42.26 134.95)">A</text><text class="cls-7" transform="translate(45.1 134.95)">R</text><text class="cls-3" transform="translate(47.67 134.95)">TNERS</text></g></g><rect class="cls-8" x="4.52" y="143.43" width="3.44" height="3.44"/><path class="cls-9" d="M20,147.13H16.07v-3.92H20Zm-3.44-.48h3v-3h-3Z" transform="translate(-11.78 0)"/><rect class="cls-10" x="6.69" y="143.67" width="1.04" height="2.98"/><path class="cls-11" d="M18,131.61a6,6,0,0,0-6,5.81,6,6,0,0,1,3,.81,6,6,0,0,1,6,0,6,6,0,0,1,3-.81A6,6,0,0,0,18,131.61Z" transform="translate(-11.78 0)"/><path class="cls-9" d="M20.92,138.44a5.84,5.84,0,0,0-5.78,0H14.9a5.71,5.71,0,0,0-2.88-.78l-.24-.25a6.26,6.26,0,0,1,12.51,0l-.24.25a5.74,5.74,0,0,0-2.88.78Zm-8.65-1.25A6.14,6.14,0,0,1,15,138a6.26,6.26,0,0,1,6,0,6.21,6.21,0,0,1,2.75-.77,5.78,5.78,0,0,0-11.52,0Z" transform="translate(-11.78 0)"/><path class="cls-12" d="M14.74,137.39a6.51,6.51,0,0,0-2.08-.53,5.52,5.52,0,0,1,4.27-4.74A10.3,10.3,0,0,0,14.74,137.39Z" transform="translate(-11.78 0)"/><path class="cls-12" d="M21.32,137.39a6.56,6.56,0,0,1,2.09-.53,5.52,5.52,0,0,0-4.28-4.74A10.3,10.3,0,0,1,21.32,137.39Z" transform="translate(-11.78 0)"/><path class="cls-9" d="M18,143.69a.3.3,0,0,1-.21-.12l-3-5.22.42-.24L18,143l2.81-4.86.41.24-3,5.22A.23.23,0,0,1,18,143.69Z" transform="translate(-11.78 0)"/><rect class="cls-9" x="14.78" y="136.18" width="0.48" height="8.51" transform="translate(-106.61 51.65) rotate(-44.95)"/><rect class="cls-9" x="16.77" y="140.19" width="8.52" height="0.48" transform="translate(-104.98 56.08) rotate(-45.04)"/><line class="cls-1" x1="182.59" y1="140.39" x2="236.7" y2="140.39"/><g class="cls-2"><text class="cls-3" transform="translate(173.85 135.05)">CLIENTS</text><text class="cls-13" transform="translate(189.87 135.05)"> </text><text class="cls-6" transform="translate(190.66 135.05)">A</text><text class="cls-7" transform="translate(193.5 135.05)">R</text><text class="cls-3" transform="translate(196.08 135.05)">CHIVE</text></g><g id="Image-2"><path class="cls-14" d="M174.59,132.6H165a.51.51,0,0,0-.49.37l-2.39,8a.63.63,0,0,0,.43.77l.16,0h14.21a.62.62,0,0,0,.62-.63.45.45,0,0,0,0-.16l-2.39-8A.52.52,0,0,0,174.59,132.6Z" transform="translate(-11.78 0)"/><path class="cls-9" d="M176.88,142H162.67a.86.86,0,0,1-.82-1.1l2.39-8a.76.76,0,0,1,.72-.54h9.63a.74.74,0,0,1,.72.54l2.39,8a.87.87,0,0,1-.6,1.07A.78.78,0,0,1,176.88,142ZM165,132.84a.28.28,0,0,0-.26.2l-2.39,8a.43.43,0,0,0,.06.33.42.42,0,0,0,.3.15h14.21a.38.38,0,0,0,.3-.15.36.36,0,0,0,.06-.33l-2.39-8a.27.27,0,0,0-.26-.19Z" transform="translate(-11.78 0)"/><path class="cls-15" d="M165.91,134.71h7.7a.55.55,0,0,1,.55.55h0v2a.36.36,0,0,1-.36.36h-8.05a.36.36,0,0,1-.36-.36h0v-2A.56.56,0,0,1,165.91,134.71Z" transform="translate(-11.78 0)"/><path class="cls-9" d="M173.77,137.88h-8a.63.63,0,0,1-.61-.61v-2a.8.8,0,0,1,.8-.8h7.68a.8.8,0,0,1,.8.79h0v2a.6.6,0,0,1-.6.61ZM165.91,135a.3.3,0,0,0-.3.3h0v2a.11.11,0,0,0,.11.11h8a.1.1,0,0,0,.11-.11h0v-2a.28.28,0,0,0-.27-.3h-7.65Z" transform="translate(-11.78 0)"/><rect class="cls-16" x="153.34" y="136.17" width="9.21" height="1.78"/><path class="cls-15" d="M165,136.69h9.41a.57.57,0,0,1,.57.57h0v2a.37.37,0,0,1-.37.37h-9.8a.38.38,0,0,1-.37-.37v-2A.57.57,0,0,1,165,136.69Z" transform="translate(-11.78 0)"/><path class="cls-9" d="M174.65,139.87h-9.8a.63.63,0,0,1-.63-.63h0v-2a.84.84,0,0,1,.83-.82h9.4a.83.83,0,0,1,.83.82v2A.63.63,0,0,1,174.65,139.87Zm-9.6-2.91a.29.29,0,0,0-.3.29h0v2a.11.11,0,0,0,.11.11h9.8a.1.1,0,0,0,.11-.11h0v-2a.29.29,0,0,0-.29-.3h-9.42Z" transform="translate(-11.78 0)"/><rect class="cls-16" x="152.5" y="138.22" width="11.02" height="2.56"/><path class="cls-15" d="M164.48,138.84H175a.57.57,0,0,1,.57.57h0v3.92a.37.37,0,0,1-.37.37H164.28a.38.38,0,0,1-.37-.37v-3.9a.58.58,0,0,1,.55-.59Z" transform="translate(-11.78 0)"/><path class="cls-9" d="M175.2,143.94H164.29a.63.63,0,0,1-.63-.63h0v-3.9a.82.82,0,0,1,.82-.82H175a.82.82,0,0,1,.82.82h0v3.9a.62.62,0,0,1-.62.63Zm-10.73-4.84a.3.3,0,0,0-.3.3h0v3.9a.11.11,0,0,0,.11.11H175.2a.1.1,0,0,0,.11-.11h0v-3.9a.3.3,0,0,0-.3-.31Z" transform="translate(-11.78 0)"/><rect class="cls-12" x="152.5" y="142.28" width="11.02" height="3.04"/><path class="cls-11" d="M177.38,140.8h-5.82a.73.73,0,0,0-.73.73v.41a1.06,1.06,0,0,1-2.08.31,2.17,2.17,0,0,1,0-.25v-.51a.73.73,0,0,0-.72-.73H162.2a.37.37,0,0,0-.36.37v5.36a.37.37,0,0,0,.36.37h15.22a.37.37,0,0,0,.37-.37v-5.27a.37.37,0,0,0-.31-.42Z" transform="translate(-11.78 0)"/><path class="cls-9" d="M177.27,141.28v5.05h-15v-5.05H168a.24.24,0,0,1,.24.25V142a1.54,1.54,0,0,0,1.54,1.54,1.6,1.6,0,0,0,.44,0,1.53,1.53,0,0,0,1.12-1.52v-.48a.25.25,0,0,1,.25-.25h5.71m.11-.48h-5.82a.73.73,0,0,0-.73.73v.41a1.07,1.07,0,0,1-.77,1.06h-.29a1.08,1.08,0,0,1-1.06-1.06v-.41a.73.73,0,0,0-.72-.73h-5.8a.37.37,0,0,0-.36.37v5.36a.37.37,0,0,0,.36.37h15.22a.37.37,0,0,0,.37-.37v-5.27a.37.37,0,0,0-.37-.37Z" transform="translate(-11.78 0)"/><rect class="cls-12" x="150.24" y="144.95" width="15.46" height="1.37"/><path class="cls-9" d="M175.1,144.85a1,1,0,1,1,.06,0Zm0-1.71a.66.66,0,1,0,.66.66.67.67,0,0,0-.66-.66Z" transform="translate(-11.78 0)"/></g><g id="Description-3"><g class="cls-2"><text class="cls-3" transform="translate(96.58 135.08)">CE</text><text class="cls-7" transform="translate(101.49 135.08)">R</text><text class="cls-3" transform="translate(104.07 135.08)">TIFIC</text><text class="cls-4" transform="translate(113.88 135.08)">A</text><text class="cls-3" transform="translate(116.44 135.08)">TIONS</text></g></g><g id="Image-3"><circle class="cls-17" cx="79.76" cy="134.36" r="1.58"/><path class="cls-18" d="M99.92,132.79a1.58,1.58,0,0,1,0,3.15" transform="translate(-11.78 0)"/><path class="cls-17" d="M90,145.33a1.58,1.58,0,0,1-3.15.25,1,1,0,0,1,0-.25,1.57,1.57,0,0,1,1.57-1.57h0" transform="translate(-11.78 0)"/><line class="cls-18" x1="79.76" y1="132.79" x2="88.16" y2="132.79"/><line class="cls-18" x1="79.76" y1="135.94" x2="88.16" y2="135.94"/><line class="cls-18" x1="76.61" y1="146.9" x2="85.01" y2="146.9"/><path class="cls-19" d="M90,143.76H88.4v.6a1,1,0,0,0,1,1H90V134.18" transform="translate(-11.78 0)"/><path class="cls-18" d="M98.38,135.92v9.39a1.58,1.58,0,0,1-1.58,1.58h0" transform="translate(-11.78 0)"/><line class="cls-20" x1="82.07" y1="142.66" x2="83.64" y2="142.66"/><line class="cls-20" x1="80.69" y1="143.45" x2="85.01" y2="143.45"/><line class="cls-20" x1="80.69" y1="144.23" x2="85.01" y2="144.23"/><path class="cls-9" d="M95.48,139.61a.11.11,0,0,0,0,.08.59.59,0,0,1-.3.3h-.11a.75.75,0,0,1-.3-.09H94.6a.86.86,0,0,1-.3.09h-.11a.46.46,0,0,1-.29-.3.11.11,0,0,1,0-.08h-.09v1.83l.94-.63.92.63v-1.83h-.19Z" transform="translate(-11.78 0)"/><path class="cls-9" d="M94.65,137.85a.59.59,0,0,0,0,1.18h0a.59.59,0,0,0,.59-.59A.61.61,0,0,0,94.65,137.85Z" transform="translate(-11.78 0)"/><path class="cls-9" d="M96,138.44c0-.13-.22-.24-.26-.36s.07-.33,0-.44-.31-.07-.41-.15-.14-.31-.27-.35-.29.13-.42.13-.3-.17-.43-.13-.16.28-.26.35-.34,0-.42.15,0,.31,0,.44-.25.23-.25.36.21.24.25.36-.07.34,0,.45.31.06.42.14.14.31.26.36.29-.13.43-.13.3.17.42.13.16-.28.27-.36.34,0,.41-.14,0-.32,0-.45S96,138.58,96,138.44Zm-1.37.72a.72.72,0,0,1,0-1.44h0a.72.72,0,0,1,0,1.44Z" transform="translate(-11.78 0)"/></g><g class="cls-2"><text class="cls-21" transform="translate(266.58 134.75)">P</text><text class="cls-7" transform="translate(269.12 134.75)">R</text><text class="cls-3" transform="translate(271.7 134.75)">OFESSION<tspan class="cls-22" x="20.67" y="0">A</tspan></text><text class="cls-23" transform="translate(294.4 134.75)">L</text><text class="cls-3" transform="translate(296.38 134.75)"><tspan xml:space="preserve"> SKILLS</tspan></text></g><g id="Image-4"><rect class="cls-8" x="263.2" y="141.88" width="2.42" height="3.31" transform="translate(-13.45 3.12) rotate(-0.67)"/><path class="cls-9" d="M265.89,145.42l-2.9,0-.05-3.79,2.9,0Zm-2.43-.46,1.94,0,0-2.83-1.94,0Z" transform="translate(-11.78 0)"/><path class="cls-24" d="M268.88,146.68l-8.87.1a.18.18,0,0,1-.19-.16.16.16,0,0,1,.12-.18L263,145l2.79,0,3.13,1.32a.18.18,0,0,1,.1.21A.16.16,0,0,1,268.88,146.68Zm-8-.27,7.15-.08-2.3-1-2.57,0Z" transform="translate(-11.78 0)"/><rect class="cls-14" x="260.02" y="146.55" width="8.86" height="1.37" transform="translate(-13.5 3.12) rotate(-0.67)"/><path class="cls-9" d="M269.14,148.16l-9.35.11,0-1.9,9.35-.11Zm-8.87-.38,8.39-.1v-.89l-8.39.1Z" transform="translate(-11.78 0)"/><path class="cls-24" d="M260.5,141.38c-1.16-1-3.93-4-4.05-4.11l-.09-.09,0-3.46,2.87,0v.59l-2.25,0,0,2.6c.47.51,2.88,3.07,3.91,3.95Z" transform="translate(-11.78 0)"/><path class="cls-24" d="M268.09,141.29l-.42-.46c1-.94,3.34-3.55,3.82-4l0-2.6-2.24,0v-.62l2.55,0a.31.31,0,0,1,.32.3l0,3a.32.32,0,0,1-.08.21C271.91,137.21,269.22,140.24,268.09,141.29Z" transform="translate(-11.78 0)"/><path class="cls-11" d="M269.24,132.74a31.36,31.36,0,0,0-10,.11s-1.53,7.61,3.92,10.4a2.55,2.55,0,0,0,2.4,0C271,140.31,269.24,132.74,269.24,132.74Z" transform="translate(-11.78 0)"/><path class="cls-25" d="M264.38,143.89a2.82,2.82,0,0,1-1.37-.32c-5.64-2.93-4.13-10.7-4.13-10.78a.39.39,0,0,1,.26-.28,31.61,31.61,0,0,1,10.18-.12.37.37,0,0,1,.26.27c0,.08,1.7,7.86-3.87,10.88A3,3,0,0,1,264.38,143.89Zm-4.77-10.74c-.18,1.24-.86,7.4,3.77,9.78a2.2,2.2,0,0,0,2.07,0c4.58-2.49,3.76-8.63,3.53-9.87A32.34,32.34,0,0,0,259.61,133.15Z" transform="translate(-11.78 0)"/><path class="cls-26" d="M264.25,133a27.14,27.14,0,0,1,4.59.27c.22,1.39.92,7.27-3.49,9.66h0a.66.66,0,0,1-.91-.21.75.75,0,0,1-.1-.36Z" transform="translate(-11.78 0)"/></g><g id="Image-5"><text class="cls-27" transform="translate(226.47 85.99)">WEB DEVELOPMEN<tspan class="cls-28" x="80.2" y="0">T</tspan></text><g id="Content"><path class="cls-29" d="M345.18,70.31c-.34,3.16-50.48.65-67.71.65s-67.63.34-67.71-.65c-.31-3.48,48.57-12.38,67.71-12.38S345.33,68.82,345.18,70.31Z" transform="translate(-11.78 0)"/><path class="cls-30" d="M236.69,1.21h78.66a2.14,2.14,0,0,1,2.14,2.14h0V55.5h-83V3.35a2.14,2.14,0,0,1,2.14-2.14Z" transform="translate(-11.78 0)"/><line class="cls-31" x1="223.5" y1="7.95" x2="304.99" y2="7.95"/><path class="cls-32" d="M237.15,4.8a1.26,1.26,0,0,1,.08-.43,1.05,1.05,0,0,1,.23-.36,1,1,0,0,1,.35-.23,1.12,1.12,0,0,1,.44-.09,1.07,1.07,0,0,1,.43.09A1,1,0,0,1,239,4a1.26,1.26,0,0,1,.24.36,1,1,0,0,1,.09.43,1.12,1.12,0,0,1-.09.44,1.21,1.21,0,0,1-.24.35,1,1,0,0,1-.35.23,1.07,1.07,0,0,1-.43.09,1.12,1.12,0,0,1-.44-.09,1,1,0,0,1-.35-.23,1.18,1.18,0,0,1-.23-.35A1.32,1.32,0,0,1,237.15,4.8Z" transform="translate(-11.78 0)"/><path class="cls-32" d="M240.91,4.8a1,1,0,0,1,.09-.43,1,1,0,0,1,.23-.36,1,1,0,0,1,.35-.23,1.07,1.07,0,0,1,.86,0,1,1,0,0,1,.36.23,1.26,1.26,0,0,1,.24.36,1.26,1.26,0,0,1,.08.43,1.32,1.32,0,0,1-.08.44,1.21,1.21,0,0,1-.24.35,1,1,0,0,1-.36.23,1.07,1.07,0,0,1-.86,0,1,1,0,0,1-.58-.58A1.12,1.12,0,0,1,240.91,4.8Z" transform="translate(-11.78 0)"/><path class="cls-32" d="M244.67,4.8a1,1,0,0,1,.09-.43A1,1,0,0,1,245,4a1,1,0,0,1,.35-.23,1,1,0,0,1,.43-.09,1.12,1.12,0,0,1,.44.09,1,1,0,0,1,.35.23,1.26,1.26,0,0,1,.24.36,1,1,0,0,1,.09.43,1.12,1.12,0,0,1-.09.44,1.21,1.21,0,0,1-.24.35,1,1,0,0,1-.35.23,1.12,1.12,0,0,1-.44.09,1,1,0,0,1-.43-.09,1,1,0,0,1-.58-.58A1.12,1.12,0,0,1,244.67,4.8Z" transform="translate(-11.78 0)"/><line class="cls-33" x1="239.31" y1="4.79" x2="299.7" y2="4.79"/><polygon class="cls-34" points="322.27 64.98 205.87 64.98 221.44 57.86 306.7 57.86 322.27 64.98"/><path class="cls-35" d="M220,68.43H331.67a1.32,1.32,0,0,1-1.32,1.32h-109A1.32,1.32,0,0,1,220,68.46v0Z" transform="translate(-11.78 0)"/><path class="cls-36" d="M217.65,65H334v2.47a1.68,1.68,0,0,1-1.68,1.68h-113a1.68,1.68,0,0,1-1.68-1.68V65Z" transform="translate(-11.78 0)"/><rect class="cls-37" x="298.99" y="66.71" width="17.62" height="0.24"/><rect class="cls-38" x="224.22" y="9.26" width="55.1" height="21.01"/><line class="cls-39" x1="268.39" y1="15.52" x2="259.77" y2="15.52"/><line class="cls-40" x1="271.56" y1="19.73" x2="263.97" y2="19.73"/><line class="cls-40" x1="265.41" y1="24.55" x2="261.92" y2="24.55"/><path class="cls-41" d="M303.52,26.35" transform="translate(-11.78 0)"/><path class="cls-41" d="M300.9,23.73" transform="translate(-11.78 0)"/><rect class="cls-38" x="224.21" y="31.66" width="80.24" height="21.01"/><path class="cls-42" d="M291,30.27h6.7c4.14,0,6.32-2.93,7.21-6.32s10,.69,17.42.69a4.77,4.77,0,0,0,0-9.54c-7.41,0-16.52,4.06-17.42.69s-3.07-6.32-7.21-6.32H291Zm32.85-10.4a1.53,1.53,0,1,1-1.53-1.53h0A1.53,1.53,0,0,1,323.88,19.87Z" transform="translate(-11.78 0)"/><rect class="cls-43" x="279.31" y="9.33" width="2.17" height="20.8"/><line class="cls-31" x1="224.21" y1="52.66" x2="304.45" y2="52.66"/><line class="cls-31" x1="224.21" y1="31.65" x2="304.45" y2="31.65"/><line class="cls-31" x1="279.31" y1="30.27" x2="224.21" y2="30.27"/><line class="cls-31" x1="279.24" y1="9.47" x2="224.21" y2="9.47"/><rect class="cls-44" x="278.4" y="9.47" width="1.14" height="20.8"/><line class="cls-40" x1="274.97" y1="25.54" x2="279.24" y2="25.54"/><line class="cls-40" x1="276.42" y1="24.09" x2="279.24" y2="24.09"/><line class="cls-40" x1="274.97" y1="18.28" x2="279.24" y2="18.28"/><line class="cls-40" x1="276.42" y1="19.73" x2="279.24" y2="19.73"/><line class="cls-40" x1="276.42" y1="15.52" x2="279.24" y2="15.52"/></g></g><g id="Skills"><g id="WebDesignIcon"><rect class="cls-45" x="11.9" y="89.61" width="18.68" height="13.71" rx="1.52" ry="1.52"/><path class="cls-38" d="M41.28,93.63v8.17a.43.43,0,0,1-.43.43H25.21a.43.43,0,0,1-.43-.43V93.63h16.5Z" transform="translate(-11.78 0)"/><polyline class="cls-45" points="18.19 106.21 18.19 103.32 24.3 103.32 24.3 106.15"/><line class="cls-45" x1="16.53" y1="105.95" x2="25.96" y2="105.95"/><line class="cls-45" x1="11.76" y1="92.68" x2="30.63" y2="92.68"/><line class="cls-45" x1="13.8" y1="91.33" x2="24.6" y2="91.33"/><line class="cls-45" x1="25.7" y1="91.33" x2="26.83" y2="91.33"/><line class="cls-45" x1="27.56" y1="91.33" x2="28.69" y2="91.33"/></g><g id="GraphicIcon"><rect class="cls-46" x="12.45" y="7.36" width="18.68" height="16.32" rx="1.52" ry="1.52"/><path class="cls-46" d="M25,23l8.23-7.16a1.52,1.52,0,0,1,2.09.09l7.15,7.29" transform="translate(-11.78 0)"/><line class="cls-46" x1="19.28" y1="17.74" x2="25.22" y2="23.68"/><path class="cls-11" d="M33.07,15.65a1.78,1.78,0,0,1,2.45.1l6.3,6.43h0V8.89a.44.44,0,0,0-.44-.43H25.76a.44.44,0,0,0-.44.43V22.16a.54.54,0,0,0,0,.18Z" transform="translate(-11.78 0)"/></g><g id="WebDevIcon"><rect class="cls-11" x="12.88" y="47.89" width="16.51" height="11.53" rx="0.43" ry="0.43"/><rect class="cls-46" x="11.84" y="46.81" width="18.68" height="13.71" rx="1.52" ry="1.52"/><polyline class="cls-46" points="18.17 51.81 19.74 53.29 18.17 54.66"/><line class="cls-46" x1="21.31" y1="54.02" x2="24.18" y2="54.02"/><polyline class="cls-46" points="18.13 63.4 18.13 60.52 24.24 60.52 24.24 63.34"/><line class="cls-46" x1="16.47" y1="63.15" x2="25.9" y2="63.15"/></g><g id="GraphicDesign"><text class="cls-47" transform="translate(37.39 11.69)">GRAPHIC DESIGN</text></g><g id="WebDevelopment"><g class="cls-2"><text class="cls-48" transform="translate(40.34 52.95)"> </text></g><g class="cls-2"><text class="cls-47" transform="translate(37 48.65)">WEB DEVE</text><text class="cls-49" transform="translate(62.78 48.65)">L</text><text class="cls-47" transform="translate(65.32 48.65)">OPMEN</text><text class="cls-50" transform="translate(84.12 48.65)">T</text></g></g><g id="WebDesign"><text class="cls-47" transform="translate(37.06 90.14)">WEB DESIGN</text></g></g><text class="cls-51" transform="translate(230.23 94.97)"><tspan class="cls-52">M</tspan><tspan x="3.24" y="0">y </tspan><tspan class="cls-53" x="5.98" y="0">w</tspan><tspan x="8.88" y="0">o</tspan><tspan class="cls-54" x="11.08" y="0">r</tspan><tspan x="12.4" y="0">k </tspan><tspan class="cls-55" x="15.12" y="0">e</tspan><tspan class="cls-56" x="17.12" y="0">xpe</tspan><tspan class="cls-54" x="23.25" y="0">r</tspan><tspan class="cls-56" x="24.57" y="0">ien</tspan><tspan class="cls-57" x="29.73" y="0">c</tspan><tspan x="31.5" y="0">e includes full-stack </tspan><tspan class="cls-53" x="64.98" y="0">w</tspan><tspan x="67.88" y="0">eb </tspan><tspan x="0" y="4.8">de</tspan><tspan class="cls-53" x="4.26" y="4.8">v</tspan><tspan x="6.14" y="4.8">elopme</tspan><tspan class="cls-58" x="18.9" y="4.8">n</tspan><tspan x="21.11" y="4.8">t and mobile app desi</tspan><tspan class="cls-59" x="57.18" y="4.8">g</tspan><tspan class="cls-56" x="59.39" y="4.8">n. </tspan></text><text x="-11.78"></text><text class="cls-51" transform="translate(36.84 55.5)">I c<tspan class="cls-53" x="3.6" y="0">r</tspan><tspan class="cls-60" x="4.86" y="0">e</tspan><tspan class="cls-61" x="6.87" y="0">a</tspan><tspan class="cls-62" x="8.78" y="0">t</tspan><tspan x="10.08" y="0">ed f</tspan><tspan class="cls-53" x="16.36" y="0">r</tspan><tspan x="17.62" y="0">o</tspan><tspan class="cls-61" x="19.82" y="0">nt</tspan><tspan class="cls-63" x="23.33" y="0">-</tspan><tspan x="24.63" y="0">end UI</tspan><tspan class="cls-64" x="35.5" y="0">s</tspan><tspan x="37.04" y="0">, bac</tspan><tspan class="cls-53" x="44.71" y="0">k</tspan><tspan class="cls-65" x="46.55" y="0">-</tspan><tspan x="47.85" y="0">end apps and </tspan><tspan class="cls-53" x="71.34" y="0">w</tspan><tspan class="cls-60" x="74.24" y="0">ebsi</tspan><tspan class="cls-59" x="81.04" y="0">t</tspan><tspan x="82.34" y="0">es using HTML, </tspan><tspan x="0" y="4.8">CSS, JS, </tspan><tspan class="cls-66" x="13.07" y="4.8">A</tspan><tspan x="15.5" y="4.8">ngula</tspan><tspan class="cls-67" x="25.04" y="4.8">r</tspan><tspan class="cls-68" x="26.13" y="4.8">, </tspan><tspan class="cls-69" x="27.81" y="4.8">R</tspan><tspan x="29.98" y="4.8">ea</tspan><tspan class="cls-70" x="33.91" y="4.8">c</tspan><tspan class="cls-71" x="35.75" y="4.8">t</tspan><tspan class="cls-68" x="37.06" y="4.8">,</tspan><tspan class="cls-72" x="37.89" y="4.8"> </tspan><tspan class="cls-60" x="38.6" y="4.8">WP</tspan><tspan class="cls-73" x="44.11" y="4.8">F</tspan><tspan class="cls-68" x="45.67" y="4.8">, Nod</tspan><tspan class="cls-74" x="54.43" y="4.8">e</tspan><tspan class="cls-68" x="56.38" y="4.8">.J</tspan><tspan class="cls-64" x="58.69" y="4.8">s</tspan><tspan x="60.23" y="4.8">, Ru</tspan><tspan class="cls-75" x="66.26" y="4.8">b</tspan><tspan class="cls-60" x="68.51" y="4.8">y </tspan><tspan class="cls-76" x="71.24" y="4.8">R</tspan><tspan x="73.44" y="4.8">ail</tspan><tspan class="cls-64" x="77.25" y="4.8">s</tspan><tspan class="cls-68" x="78.79" y="4.8">, </tspan><tspan class="cls-77" x="80.47" y="4.8">M</tspan><tspan x="83.71" y="4.8">ongoDB and </tspan><tspan class="cls-78" x="0" y="9.6">P</tspan><tspan class="cls-60" x="2.03" y="9.6">ostG</tspan><tspan class="cls-53" x="9.72" y="9.6">r</tspan><tspan x="10.98" y="9.6">e</tspan><tspan class="cls-77" x="12.99" y="9.6">S</tspan><tspan x="14.98" y="9.6">q</tspan><tspan class="cls-53" x="17.24" y="9.6">l</tspan><tspan x="18.14" y="9.6" xml:space="preserve">.  </tspan><tspan class="cls-77" x="20.66" y="9.6">S</tspan><tspan x="22.66" y="9.6">ome </tspan><tspan class="cls-66" x="31.04" y="9.6">e</tspan><tspan x="33.04" y="9.6">xamples a</tspan><tspan class="cls-53" x="49.74" y="9.6">r</tspan><tspan x="51" y="9.6">e a loan se</tspan><tspan class="cls-79" x="68.35" y="9.6">r</tspan><tspan x="69.76" y="9.6">vi</tspan><tspan class="cls-62" x="72.62" y="9.6">c</tspan><tspan x="74.39" y="9.6">e </tspan><tspan class="cls-80" x="77.24" y="9.6">f</tspan><tspan x="78.36" y="9.6">or au</tspan><tspan class="cls-59" x="86.84" y="9.6">t</tspan><tspan class="cls-60" x="88.14" y="9.6">om</tspan><tspan class="cls-61" x="93.67" y="9.6">a</tspan><tspan class="cls-68" x="95.59" y="9.6">ting </tspan><tspan x="0" y="14.4">p</tspan><tspan class="cls-53" x="2.28" y="14.4">r</tspan><tspan x="3.54" y="14.4">o</tspan><tspan class="cls-62" x="5.74" y="14.4">c</tspan><tspan x="7.51" y="14.4">essing applic</tspan><tspan class="cls-58" x="29.07" y="14.4">a</tspan><tspan x="30.98" y="14.4">tion</tspan><tspan class="cls-64" x="37.66" y="14.4">s</tspan><tspan x="39.2" y="14.4">, global </tspan><tspan class="cls-80" x="52.25" y="14.4">h</tspan><tspan class="cls-60" x="54.42" y="14.4">yb</tspan><tspan class="cls-54" x="58.58" y="14.4">r</tspan><tspan x="59.9" y="14.4">id cloud disas</tspan><tspan class="cls-59" x="82.47" y="14.4">t</tspan><tspan x="83.77" y="14.4">er </tspan><tspan class="cls-53" x="87.93" y="14.4">r</tspan><tspan x="89.19" y="14.4">e</tspan><tspan class="cls-62" x="91.2" y="14.4">co</tspan><tspan class="cls-53" x="95.13" y="14.4">v</tspan><tspan x="97.02" y="14.4">e</tspan><tspan class="cls-79" x="99.02" y="14.4">r</tspan><tspan x="100.43" y="14.4">y </tspan><tspan x="0" y="19.2">s</tspan><tspan class="cls-62" x="1.58" y="19.2">y</tspan><tspan x="3.44" y="19.2">s</tspan><tspan class="cls-62" x="5.03" y="19.2">t</tspan><tspan x="6.33" y="19.2">em, a multi-</tspan><tspan class="cls-59" x="26.09" y="19.2">t</tspan><tspan x="27.39" y="19.2">ena</tspan><tspan class="cls-58" x="33.54" y="19.2">n</tspan><tspan class="cls-68" x="35.75" y="19.2">t </tspan><tspan class="cls-81" x="37.92" y="19.2">P</tspan><tspan x="39.94" y="19.2">aaS/ </tspan><tspan class="cls-82" x="47.99" y="19.2">S</tspan><tspan x="49.98" y="19.2">aaS ne</tspan><tspan class="cls-83" x="60.88" y="19.2">t</tspan><tspan class="cls-84" x="62.23" y="19.2">w</tspan><tspan x="65.14" y="19.2">o</tspan><tspan class="cls-69" x="67.33" y="19.2">r</tspan><tspan class="cls-85" x="68.66" y="19.2">k</tspan><tspan x="70.6" y="19.2">ing </tspan><tspan class="cls-59" x="76.84" y="19.2">t</tspan><tspan class="cls-60" x="78.14" y="19.2">ool and SEO </tspan><tspan class="cls-62" x="99.12" y="19.2">t</tspan><tspan class="cls-60" x="100.42" y="19.2">ool</tspan><tspan class="cls-64" x="105.76" y="19.2">s</tspan><tspan x="107.3" y="19.2" xml:space="preserve">.   </tspan></text><text class="cls-51" transform="translate(37.32 97.93)">I <tspan class="cls-80" x="1.8" y="0">f</tspan><tspan class="cls-60" x="2.92" y="0">oll</tspan><tspan class="cls-75" x="7" y="0">o</tspan><tspan x="9.17" y="0">w an a</tspan><tspan class="cls-62" x="19.89" y="0">g</tspan><tspan x="22.1" y="0">ile desi</tspan><tspan class="cls-62" x="33.61" y="0">g</tspan><tspan class="cls-60" x="35.82" y="0">n philosop</tspan><tspan class="cls-86" x="53.52" y="0">h</tspan><tspan class="cls-60" x="55.69" y="0">y using sp</tspan><tspan class="cls-69" x="72.31" y="0">r</tspan><tspan x="73.63" y="0">i</tspan><tspan class="cls-61" x="74.57" y="0">n</tspan><tspan class="cls-68" x="76.77" y="0">t based planning </tspan><tspan x="0" y="4.8">and </tspan><tspan class="cls-66" x="7.25" y="4.8">e</tspan><tspan class="cls-87" x="9.24" y="4.8">x</tspan><tspan x="11.04" y="4.8">ecution, </tspan><tspan class="cls-80" x="25.39" y="4.8">f</tspan><tspan x="26.5" y="4.8">oll</tspan><tspan class="cls-88" x="30.59" y="4.8">o</tspan><tspan x="32.76" y="4.8">wing indust</tspan><tspan class="cls-89" x="52.46" y="4.8">r</tspan><tspan class="cls-60" x="53.87" y="4.8">y standa</tspan><tspan class="cls-53" x="67.84" y="4.8">r</tspan><tspan x="69.11" y="4.8">ds and applying obje</tspan><tspan class="cls-70" x="104.05" y="4.8">c</tspan><tspan x="105.89" y="4.8">t o</tspan><tspan class="cls-54" x="110.26" y="4.8">r</tspan><tspan x="111.58" y="4.8">ie</tspan><tspan class="cls-61" x="114.52" y="4.8">n</tspan><tspan class="cls-62" x="116.73" y="4.8">t</tspan><tspan x="118.03" y="4.8">ed desi</tspan><tspan class="cls-59" x="129.91" y="4.8">g</tspan><tspan x="132.13" y="4.8">n</tspan><tspan x="0" y="9.6">and anal</tspan><tspan class="cls-62" x="14.27" y="9.6">y</tspan><tspan x="16.13" y="9.6">sis </tspan><tspan class="cls-80" x="21.08" y="9.6">f</tspan><tspan x="22.2" y="9.6">or de</tspan><tspan class="cls-53" x="30.81" y="9.6">v</tspan><tspan class="cls-60" x="32.7" y="9.6">eloping </tspan><tspan class="cls-53" x="46.36" y="9.6">w</tspan><tspan x="49.26" y="9.6">ebsi</tspan><tspan class="cls-57" x="56.06" y="9.6">t</tspan><tspan x="57.36" y="9.6">e</tspan><tspan class="cls-64" x="59.36" y="9.6">s</tspan><tspan class="cls-68" x="60.9" y="9.6" xml:space="preserve">.  </tspan><tspan class="cls-52" x="63.43" y="9.6">M</tspan><tspan x="66.67" y="9.6">y apps </tspan><tspan class="cls-84" x="78.31" y="9.6">w</tspan><tspan x="81.22" y="9.6">o</tspan><tspan class="cls-69" x="83.41" y="9.6">r</tspan><tspan x="84.74" y="9.6">k c</tspan><tspan class="cls-53" x="89.25" y="9.6">r</tspan><tspan class="cls-60" x="90.52" y="9.6">oss-pl</tspan><tspan class="cls-61" x="100.33" y="9.6">a</tspan><tspan x="102.25" y="9.6">t</tspan><tspan class="cls-80" x="103.57" y="9.6">f</tspan><tspan x="104.69" y="9.6">o</tspan><tspan class="cls-54" x="106.88" y="9.6">r</tspan><tspan class="cls-60" x="108.21" y="9.6">m on</tspan><tspan class="cls-72" x="116.81" y="9.6"> </tspan><tspan class="cls-90" x="117.51" y="9.6">W</tspan><tspan class="cls-56" x="120.83" y="9.6">ind</tspan><tspan class="cls-91" x="126.24" y="9.6">ow</tspan><tspan class="cls-64" x="131.33" y="9.6">s</tspan><tspan x="132.87" y="9.6">, </tspan><tspan class="cls-77" x="0" y="14.4">M</tspan><tspan class="cls-60" x="3.24" y="14.4">acOs/ IOS and Linux/ Unix e</tspan><tspan class="cls-86" x="49.07" y="14.4">n</tspan><tspan x="51.24" y="14.4">vi</tspan><tspan class="cls-53" x="54.1" y="14.4">r</tspan><tspan x="55.37" y="14.4">onme</tspan><tspan class="cls-58" x="65.12" y="14.4">n</tspan><tspan class="cls-68" x="67.33" y="14.4">t</tspan><tspan class="cls-64" x="68.65" y="14.4">s</tspan><tspan x="70.19" y="14.4" xml:space="preserve">.   </tspan></text><text class="cls-51" transform="translate(37.39 17.74)">I c<tspan class="cls-53" x="3.6" y="0">r</tspan><tspan class="cls-60" x="4.86" y="0">e</tspan><tspan class="cls-61" x="6.87" y="0">a</tspan><tspan class="cls-62" x="8.78" y="0">t</tspan><tspan x="10.08" y="0">e o</tspan><tspan class="cls-54" x="15.13" y="0">r</tspan><tspan x="16.45" y="0">i</tspan><tspan class="cls-62" x="17.39" y="0">g</tspan><tspan x="19.6" y="0">inal a</tspan><tspan class="cls-92" x="28.4" y="0">r</tspan><tspan class="cls-93" x="29.81" y="0">t</tspan><tspan class="cls-53" x="31.17" y="0">w</tspan><tspan class="cls-60" x="34.07" y="0">o</tspan><tspan class="cls-54" x="36.27" y="0">r</tspan><tspan x="37.59" y="0">k </tspan><tspan class="cls-86" x="40.32" y="0">f</tspan><tspan class="cls-60" x="41.43" y="0">or </tspan><tspan class="cls-80" x="45.78" y="0">m</tspan><tspan x="49.07" y="0">y </tspan><tspan class="cls-53" x="51.8" y="0">w</tspan><tspan x="54.7" y="0">ebsi</tspan><tspan class="cls-57" x="61.5" y="0">t</tspan><tspan x="62.8" y="0">es including wi</tspan><tspan class="cls-94" x="87.71" y="0">r</tspan><tspan x="88.98" y="0">ef</tspan><tspan class="cls-95" x="92.15" y="0">r</tspan><tspan class="cls-60" x="93.44" y="0">ame</tspan><tspan class="cls-64" x="100.71" y="0">s</tspan><tspan x="102.25" y="0">, </tspan><tspan class="cls-84" x="103.92" y="0">w</tspan><tspan x="106.83" y="0">eb l</tspan><tspan class="cls-96" x="112.9" y="0">a</tspan><tspan class="cls-53" x="114.79" y="0">y</tspan><tspan class="cls-60" x="116.64" y="0">out</tspan><tspan class="cls-64" x="122.36" y="0">s</tspan><tspan x="123.9" y="0">,</tspan><tspan class="cls-59" x="0" y="4.8">t</tspan><tspan x="1.3" y="4.8">empl</tspan><tspan class="cls-58" x="9.86" y="4.8">a</tspan><tspan class="cls-59" x="11.77" y="4.8">t</tspan><tspan x="13.07" y="4.8">e</tspan><tspan class="cls-64" x="15.08" y="4.8">s</tspan><tspan x="16.62" y="4.8">, i</tspan><tspan class="cls-62" x="19.23" y="4.8">c</tspan><tspan class="cls-60" x="21" y="4.8">ons and s</tspan><tspan class="cls-59" x="36.68" y="4.8">c</tspan><tspan class="cls-60" x="38.45" y="4.8">enes </tspan><tspan class="cls-80" x="47.11" y="4.8">f</tspan><tspan x="48.22" y="4.8">or anim</tspan><tspan class="cls-61" x="61" y="4.8">a</tspan><tspan x="62.91" y="4.8" xml:space="preserve">tion.  I b</tspan><tspan class="cls-54" x="76.19" y="4.8">r</tspan><tspan x="77.51" y="4.8">ing the s</tspan><tspan class="cls-62" x="91.73" y="4.8">c</tspan><tspan x="93.5" y="4.8">enes </tspan><tspan class="cls-57" x="102.16" y="4.8">t</tspan><tspan x="103.46" y="4.8">o li</tspan><tspan class="cls-80" x="108.38" y="4.8">f</tspan><tspan x="109.5" y="4.8">e </tspan><tspan class="cls-75" x="112.35" y="4.8">b</tspan><tspan class="cls-60" x="114.6" y="4.8">y </tspan><tspan x="0" y="9.6">meticulously anim</tspan><tspan class="cls-61" x="30.62" y="9.6">a</tspan><tspan class="cls-68" x="32.53" y="9.6">ting e</tspan><tspan class="cls-86" x="42.1" y="9.6">ff</tspan><tspan x="44.38" y="9.6">e</tspan><tspan class="cls-70" x="46.38" y="9.6">c</tspan><tspan class="cls-68" x="48.23" y="9.6">t</tspan><tspan class="cls-64" x="49.55" y="9.6">s</tspan><tspan x="51.09" y="9.6">. </tspan><tspan class="cls-97" x="52.77" y="9.6"> </tspan><tspan class="cls-75" x="53.45" y="9.6">T</tspan><tspan x="55.41" y="9.6">he end </tspan><tspan class="cls-53" x="67.81" y="9.6">r</tspan><tspan x="69.08" y="9.6">esult is a beautifu</tspan><tspan class="cls-53" x="98.17" y="9.6">l</tspan><tspan class="cls-68" x="99.08" y="9.6">, pi</tspan><tspan class="cls-87" x="103.97" y="9.6">x</tspan><tspan x="105.76" y="9.6">el-pe</tspan><tspan class="cls-98" x="114.21" y="9.6">r</tspan><tspan class="cls-80" x="115.64" y="9.6">f</tspan><tspan x="116.76" y="9.6">e</tspan><tspan class="cls-99" x="118.76" y="9.6">c</tspan><tspan class="cls-68" x="120.61" y="9.6">t </tspan><tspan x="0" y="14.4">t</tspan><tspan class="cls-100" x="1.32" y="14.4">r</tspan><tspan x="2.61" y="14.4">ansition th</tspan><tspan class="cls-58" x="20.35" y="14.4">a</tspan><tspan class="cls-68" x="22.26" y="14.4">t adds a li</tspan><tspan class="cls-53" x="37.96" y="14.4">v</tspan><tspan x="39.84" y="14.4">ely flair </tspan><tspan class="cls-62" x="52.64" y="14.4">t</tspan><tspan x="53.94" y="14.4">o the </tspan><tspan class="cls-62" x="63.38" y="14.4">c</tspan><tspan x="65.14" y="14.4">o</tspan><tspan class="cls-58" x="67.34" y="14.4">n</tspan><tspan class="cls-59" x="69.54" y="14.4">t</tspan><tspan x="70.84" y="14.4">e</tspan><tspan class="cls-58" x="72.85" y="14.4">n</tspan><tspan x="75.05" y="14.4">t in b</tspan><tspan class="cls-69" x="83.5" y="14.4">r</tspan><tspan x="84.83" y="14.4">in</tspan><tspan class="cls-62" x="87.98" y="14.4">g</tspan><tspan x="90.19" y="14.4">ing c</tspan><tspan class="cls-94" x="98.23" y="14.4">r</tspan><tspan class="cls-60" x="99.49" y="14.4">e</tspan><tspan class="cls-101" x="101.5" y="14.4">a</tspan><tspan x="103.41" y="14.4">ti</tspan><tspan class="cls-53" x="105.67" y="14.4">v</tspan><tspan x="107.55" y="14.4">e ideas </tspan><tspan class="cls-62" x="119.96" y="14.4">t</tspan><tspan x="121.26" y="14.4">o li</tspan><tspan class="cls-80" x="126.19" y="14.4">fe</tspan><tspan x="129.26" y="14.4">. </tspan></text><text x="-11.78"></text><text class="cls-51" transform="translate(19.31 140.71)">I <tspan class="cls-53" x="1.8" y="0">v</tspan><tspan x="3.69" y="0">olu</tspan><tspan class="cls-58" x="9.03" y="0">n</tspan><tspan class="cls-59" x="11.24" y="0">t</tspan><tspan x="12.54" y="0">eer </tspan><tspan class="cls-80" x="18.7" y="0">f</tspan><tspan x="19.82" y="0">or non-p</tspan><tspan class="cls-53" x="34.31" y="0">r</tspan><tspan x="35.58" y="0">ofit</tspan><tspan x="0" y="4.8">o</tspan><tspan class="cls-102" x="2.2" y="4.8">r</tspan><tspan x="3.47" y="4.8">ganiz</tspan><tspan class="cls-61" x="12.5" y="4.8">a</tspan><tspan class="cls-68" x="14.42" y="4.8">tions and </tspan><tspan class="cls-62" x="30.78" y="4.8">c</tspan><tspan class="cls-60" x="32.54" y="4.8">onsulta</tspan><tspan class="cls-58" x="44.94" y="4.8">n</tspan><tspan class="cls-68" x="47.15" y="4.8">t </tspan><tspan class="cls-80" x="0" y="9.6">f</tspan><tspan x="1.12" y="9.6">or end</tspan><tspan class="cls-65" x="11.95" y="9.6">-</tspan><tspan x="13.25" y="9.6">clie</tspan><tspan class="cls-101" x="18.92" y="9.6">n</tspan><tspan x="21.13" y="9.6">t</tspan><tspan class="cls-64" x="22.45" y="9.6">s</tspan><tspan x="23.99" y="9.6">.</tspan></text><text class="cls-51" transform="translate(96.58 140.71)">I <tspan class="cls-59" x="1.8" y="0">c</tspan><tspan class="cls-60" x="3.57" y="0">omple</tspan><tspan class="cls-57" x="14.33" y="0">t</tspan><tspan x="15.63" y="0">ed the</tspan><tspan class="cls-72" x="26.28" y="0"> </tspan><tspan class="cls-103" x="26.99" y="0">W</tspan><tspan x="30.24" y="0">eb </tspan><tspan class="cls-69" x="0" y="4.8">D</tspan><tspan x="2.68" y="4.8">e</tspan><tspan class="cls-53" x="4.68" y="4.8">v</tspan><tspan x="6.57" y="4.8">elopme</tspan><tspan class="cls-58" x="19.33" y="4.8">n</tspan><tspan class="cls-68" x="21.53" y="4.8">t </tspan><tspan class="cls-104" x="23.7" y="4.8">I</tspan><tspan x="24.7" y="4.8">mmersi</tspan><tspan class="cls-53" x="37.2" y="4.8">v</tspan><tspan x="39.09" y="4.8">e</tspan><tspan class="cls-62" x="0" y="9.6">c</tspan><tspan x="1.77" y="9.6">ourse </tspan><tspan class="cls-58" x="11.91" y="9.6">a</tspan><tspan x="13.82" y="9.6">t </tspan><tspan class="cls-105" x="16" y="9.6">G</tspan><tspan x="18.6" y="9.6">ene</tspan><tspan class="cls-95" x="24.83" y="9.6">r</tspan><tspan class="cls-68" x="26.12" y="9.6">al </tspan><tspan class="cls-62" x="29.84" y="9.6">A</tspan><tspan x="32.26" y="9.6">ssembl</tspan><tspan class="cls-106" x="43.99" y="9.6">y</tspan><tspan x="45.72" y="9.6">.</tspan></text><text class="cls-51" transform="translate(173.85 140.34)"><tspan class="cls-52">M</tspan><tspan x="3.24" y="0">y end</tspan><tspan class="cls-63" x="12.46" y="0">-</tspan><tspan x="13.76" y="0">clie</tspan><tspan class="cls-58" x="19.43" y="0">n</tspan><tspan x="21.64" y="0">ts include Ellie </tspan><tspan class="cls-107" x="46.24" y="0">M</tspan><tspan class="cls-56" x="49.48" y="0">a</tspan><tspan class="cls-74" x="51.41" y="0">e</tspan><tspan x="53.36" y="0">, </tspan><tspan class="cls-108" x="0" y="4.8">L</tspan><tspan x="1.83" y="4.8">eidos Health, </tspan><tspan class="cls-109" x="24.36" y="4.8">P</tspan><tspan x="26.47" y="4.8">hilips Healca</tspan><tspan class="cls-110" x="47.42" y="4.8">r</tspan><tspan x="48.68" y="4.8">e </tspan><tspan class="cls-55" x="51.54" y="4.8">A</tspan><tspan class="cls-56" x="53.97" y="4.8">nalytic</tspan><tspan class="cls-64" x="65" y="4.8">s</tspan><tspan x="66.54" y="4.8">, </tspan><tspan class="cls-111" x="0" y="9.6">M</tspan><tspan class="cls-56" x="3.26" y="9.6">ic</tspan><tspan class="cls-53" x="5.99" y="9.6">r</tspan><tspan x="7.26" y="9.6">oso</tspan><tspan class="cls-112" x="13.24" y="9.6">f</tspan><tspan class="cls-66" x="14.45" y="9.6">t</tspan><tspan x="15.76" y="9.6">, </tspan><tspan class="cls-66" x="17.44" y="9.6">C</tspan><tspan x="19.74" y="9.6">is</tspan><tspan class="cls-59" x="22.26" y="9.6">c</tspan><tspan class="cls-113" x="24.03" y="9.6">o</tspan><tspan x="26.13" y="9.6">, and Blue Shiel</tspan><tspan class="cls-110" x="51.3" y="9.6">d</tspan><tspan class="cls-114" x="53.52" y="9.6">, </tspan><tspan class="cls-54" x="55.2" y="9.6">C</tspan><tspan class="cls-114" x="57.53" y="9.6">A.</tspan></text><text class="cls-51" transform="translate(266.58 140.43)"><tspan class="cls-52">M</tspan><tspan x="3.24" y="0">y s</tspan><tspan class="cls-115" x="7.56" y="0">k</tspan><tspan x="9.5" y="0">ills a</tspan><tspan class="cls-110" x="16.69" y="0">r</tspan><tspan x="17.96" y="0">e full-stack </tspan><tspan class="cls-53" x="36.65" y="0">w</tspan><tspan x="39.55" y="0">eb </tspan><tspan x="0" y="4.8">de</tspan><tspan class="cls-53" x="4.26" y="4.8">v</tspan><tspan x="6.14" y="4.8">elopme</tspan><tspan class="cls-58" x="18.9" y="4.8">nt</tspan><tspan x="22.42" y="4.8">, </tspan><tspan class="cls-108" x="24.1" y="4.8">Q</tspan><tspan class="cls-114" x="26.8" y="4.8">A, D</tspan><tspan class="cls-58" x="33.58" y="4.8">a</tspan><tspan x="35.5" y="4.8">ta </tspan><tspan class="cls-116" x="39.6" y="4.8">S</tspan><tspan x="41.59" y="4.8">cien</tspan><tspan class="cls-57" x="48.54" y="4.8">c</tspan><tspan x="50.31" y="4.8">e </tspan><tspan x="0" y="9.6">and </tspan><tspan class="cls-116" x="7.25" y="9.6">M</tspan><tspan x="10.49" y="9.6">achine </tspan><tspan class="cls-108" x="22.44" y="9.6">L</tspan><tspan x="24.27" y="9.6">ea</tspan><tspan class="cls-117" x="28.2" y="9.6">r</tspan><tspan x="29.53" y="9.6">nin</tspan><tspan class="cls-118" x="34.9" y="9.6">g</tspan><tspan x="37.08" y="9.6">. </tspan></text></svg>