<svg xmlns="http://www.w3.org/2000/svg" viewBox="0 0 345.17 157.27"><defs><style>.cls-1{isolation:isolate;}.cls-2{fill:#5e6060;}.cls-3,.cls-71{opacity:0.6;fill:#606362;font-family:Lato-Bold, Lato;font-weight:700;}.cls-3{font-size:3px;}.cls-4{letter-spacing:-0.02em;}.cls-5{letter-spacing:-0.02em;}.cls-6{letter-spacing:-0.01em;}.cls-7{letter-spacing:0em;}.cls-8{letter-spacing:-0.02em;}.cls-9{letter-spacing:-0.01em;}.cls-10{letter-spacing:-0.02em;}.cls-11{letter-spacing:0em;}.cls-12{letter-spacing:-0.01em;}.cls-13{letter-spacing:-0.01em;}.cls-14{letter-spacing:-0.01em;}.cls-15{letter-spacing:-0.01em;}.cls-16{letter-spacing:0em;}.cls-17{letter-spacing:-0.01em;}.cls-18{letter-spacing:-0.01em;}.cls-19{letter-spacing:-0.01em;}.cls-20{fill:#696c6f;}.cls-21,.cls-71{font-size:4px;}.cls-118,.cls-21{fill:#5e5e5e;}.cls-118,.cls-141,.cls-149,.cls-21,.cls-84{font-family:Lato-Black, Lato;}.cls-22{letter-spacing:-0.07em;}.cls-23{letter-spacing:-0.05em;}.cls-24{letter-spacing:-0.01em;}.cls-25{fill:#b2b5b4;}.cls-26{fill:#797e7c;}.cls-27,.cls-29,.cls-43,.cls-99{fill:#85918d;mix-blend-mode:luminosity;}.cls-27,.cls-70{opacity:0.4;}.cls-28,.cls-59,.cls-89,.cls-96{fill:#ececec;}.cls-29,.cls-98{opacity:0.13;}.cls-30{letter-spacing:-0.01em;}.cls-31{letter-spacing:-0.01em;}.cls-32{letter-spacing:-0.03em;}.cls-33{letter-spacing:-0.02em;}.cls-34{letter-spacing:0em;}.cls-35{letter-spacing:-0.01em;}.cls-36{letter-spacing:-0.01em;}.cls-37{letter-spacing:-0.01em;}.cls-38{letter-spacing:-0.02em;}.cls-39{letter-spacing:-0.03em;}.cls-40{letter-spacing:-0.01em;}.cls-41,.cls-57,.cls-91{fill:#cfd0d0;}.cls-42,.cls-86{fill:#fff;}.cls-43{opacity:0.23;}.cls-44{letter-spacing:-0.01em;}.cls-45{letter-spacing:-0.01em;}.cls-46{letter-spacing:-0.06em;}.cls-47{letter-spacing:-0.01em;}.cls-48{letter-spacing:-0.01em;}.cls-49{letter-spacing:-0.01em;}.cls-50{letter-spacing:-0.03em;}.cls-51{letter-spacing:0em;}.cls-52{letter-spacing:-0.04em;}.cls-53{letter-spacing:-0.02em;}.cls-54{letter-spacing:-0.03em;}.cls-55{letter-spacing:-0.02em;}.cls-56{letter-spacing:-0.07em;}.cls-57,.cls-58,.cls-59,.cls-60{stroke:#777e7c;}.cls-148,.cls-57,.cls-58,.cls-59,.cls-60,.cls-88,.cls-92,.cls-94,.cls-95{stroke-linecap:round;}.cls-103,.cls-104,.cls-57,.cls-58,.cls-86,.cls-96{stroke-miterlimit:10;}.cls-57,.cls-58,.cls-59{stroke-width:0.48px;}.cls-103,.cls-104,.cls-148,.cls-58,.cls-60,.cls-87,.cls-88,.cls-92,.cls-94,.cls-95{fill:none;}.cls-59,.cls-87,.cls-88,.cls-89,.cls-91,.cls-92,.cls-94,.cls-95,.cls-97{stroke-linejoin:bevel;}.cls-148,.cls-60{stroke-linejoin:round;}.cls-60{stroke-width:0.58px;}.cls-61{letter-spacing:-0.03em;}.cls-62{letter-spacing:-0.02em;}.cls-63{letter-spacing:-0.06em;}.cls-64{letter-spacing:-0.02em;}.cls-65{letter-spacing:-0.01em;}.cls-66{letter-spacing:-0.01em;}.cls-67{letter-spacing:-0.03em;}.cls-68{fill:#7b807d;}.cls-69{fill:#7c807e;}.cls-70{fill:#c5c4c6;}.cls-72{letter-spacing:-0.01em;}.cls-73{letter-spacing:-0.02em;}.cls-74{letter-spacing:-0.01em;}.cls-75{letter-spacing:-0.02em;}.cls-76{letter-spacing:-0.03em;}.cls-77{letter-spacing:-0.01em;}.cls-78{letter-spacing:0em;}.cls-79{letter-spacing:-0.01em;}.cls-80{letter-spacing:-0.01em;}.cls-81{letter-spacing:-0.01em;}.cls-82{letter-spacing:-0.01em;}.cls-83{letter-spacing:-0.02em;}.cls-84{font-size:8.44px;fill:#606261;}.cls-85{fill:#6a6e72;opacity:0.15;}.cls-86,.cls-87,.cls-88,.cls-89,.cls-91,.cls-92,.cls-94,.cls-95,.cls-96,.cls-97{stroke:#5e6060;}.cls-86{stroke-width:2.41px;}.cls-87,.cls-88{stroke-width:0.54px;}.cls-89,.cls-91,.cls-97{stroke-width:0.9px;}.cls-90{fill:#c1c1c1;}.cls-92{stroke-width:0.6px;}.cls-93{fill:#3fa9f5;}.cls-143,.cls-93{fill-opacity:0.47;}.cls-94,.cls-95{stroke-width:0.36px;}.cls-94{stroke-dasharray:8.62;}.cls-96{stroke-width:1.65px;}.cls-97{fill:#c69c6d;}.cls-98{fill:#b78767;}.cls-144,.cls-147,.cls-98{mix-blend-mode:multiply;}.cls-142,.cls-99{opacity:0.32;}.cls-100{fill:#9f9b9a;}.cls-101{opacity:0.5;}.cls-102{fill:#898788;}.cls-103{stroke:#6d6a69;}.cls-103,.cls-104{stroke-width:0.54px;}.cls-104{stroke:#9b9b9b;}.cls-105{letter-spacing:-0.12em;}.cls-106{letter-spacing:0em;}.cls-107{letter-spacing:-0.01em;}.cls-108{letter-spacing:-0.01em;}.cls-109{letter-spacing:-0.01em;}.cls-110{letter-spacing:-0.01em;}.cls-111{letter-spacing:-0.01em;}.cls-112{letter-spacing:-0.01em;}.cls-113{letter-spacing:-0.03em;}.cls-114{letter-spacing:-0.02em;}.cls-115{letter-spacing:-0.01em;}.cls-116{letter-spacing:-0.02em;}.cls-117{letter-spacing:-0.01em;}.cls-118,.cls-141{font-size:5px;}.cls-119{letter-spacing:-0.01em;}.cls-120{letter-spacing:-0.04em;}.cls-121{letter-spacing:-0.02em;}.cls-122{letter-spacing:0em;}.cls-123{letter-spacing:-0.07em;}.cls-124{letter-spacing:-0.02em;}.cls-125{letter-spacing:-0.01em;}.cls-126{letter-spacing:-0.09em;}.cls-127{letter-spacing:-0.02em;}.cls-128{letter-spacing:-0.02em;}.cls-129{letter-spacing:-0.01em;}.cls-130{letter-spacing:-0.02em;}.cls-131{letter-spacing:-0.01em;}.cls-132{letter-spacing:0em;}.cls-133{letter-spacing:-0.02em;}.cls-134{letter-spacing:-0.02em;}.cls-135{letter-spacing:-0.03em;}.cls-136{letter-spacing:-0.06em;}.cls-137{letter-spacing:-0.02em;}.cls-138{letter-spacing:-0.04em;}.cls-139{letter-spacing:-0.05em;}.cls-140{letter-spacing:-0.04em;}.cls-141,.cls-149,.cls-151{fill:#ee7670;}.cls-142{fill:#f25446;}.cls-143{fill:#47c2cd;}.cls-144{fill:#a9c056;opacity:0.58;}.cls-145{fill:#f7f7f7;}.cls-146{fill:#5c5c5c;}.cls-147{fill:#f0dbcc;}.cls-148{stroke:#5c5c5c;stroke-width:0.8px;}.cls-149{font-size:3.5px;}.cls-150{letter-spacing:-0.07em;}</style></defs><title>web-design</title><g class="cls-1"><g id="Web_Dev_Profile" data-name="Web Dev Profile"><g id="Page"><g id="All"><g id="Footer"><g id="HorizontalRule"><line class="cls-2" x1="31.72" y1="126.34" x2="338.59" y2="126.34"/></g><g id="Container"><g id="Partners"><g id="Description"><text class="cls-3" transform="translate(44.73 147.37) scale(0.58)">I<tspan class="cls-4" x="0.89" y="0"> </tspan><tspan class="cls-5" x="1.55" y="0">v</tspan><tspan x="3.08" y="0">olu</tspan><tspan class="cls-6" x="7.24" y="0">nt</tspan><tspan class="cls-7" x="10.02" y="0">ee</tspan><tspan class="cls-8" x="13.22" y="0">r</tspan><tspan x="14.28" y="0"> </tspan><tspan class="cls-9" x="15.01" y="0">m</tspan><tspan class="cls-10" x="17.48" y="0">y</tspan><tspan x="18.98" y="0" xml:space="preserve"> time </tspan><tspan class="cls-11" x="26.49" y="0">t</tspan><tspan x="27.59" y="0">o d</tspan><tspan class="cls-12" x="31.74" y="0">e</tspan><tspan class="cls-5" x="33.31" y="0">v</tspan><tspan x="34.84" y="0">elop si</tspan><tspan class="cls-11" x="43.43" y="0">t</tspan><tspan x="44.53" y="0">es </tspan><tspan class="cls-13" x="48.18" y="0">f</tspan><tspan x="49.22" y="0">o</tspan><tspan class="cls-8" x="50.94" y="0">r</tspan><tspan x="52" y="0" xml:space="preserve"> non-p</tspan><tspan class="cls-14" x="60.65" y="0">rof</tspan><tspan x="63.42" y="0">it o</tspan><tspan class="cls-15" x="68.79" y="0">r</tspan><tspan x="69.89" y="0">ganiza</tspan><tspan class="cls-6" x="76.83" y="0">t</tspan><tspan class="cls-16" x="78.33" y="0">ions and </tspan><tspan class="cls-17" x="0" y="3.81">w</tspan><tspan x="2.38" y="3.81">ork as a </tspan><tspan class="cls-18" x="13.38" y="3.81">c</tspan><tspan x="14.8" y="3.81">onsulta</tspan><tspan class="cls-6" x="24.6" y="3.81">n</tspan><tspan x="26.28" y="3.81">t </tspan><tspan class="cls-13" x="28.12" y="3.81">f</tspan><tspan x="29.15" y="3.81">o</tspan><tspan class="cls-8" x="30.88" y="3.81">r</tspan><tspan class="cls-4" x="31.93" y="3.81"> </tspan><tspan class="cls-19" x="32.59" y="3.81">v</tspan><tspan x="34.14" y="3.81">a</tspan><tspan class="cls-14" x="35.66" y="3.81">r</tspan><tspan x="36.73" y="3.81">ous end-clie</tspan><tspan class="cls-6" x="52.87" y="3.81">n</tspan><tspan x="54.54" y="3.81">ts.</tspan></text><line class="cls-20" x1="44.73" y1="142.93" x2="98.85" y2="142.93"/><text class="cls-21" transform="translate(44.73 140.48)">AFFILI<tspan class="cls-22" x="11.96" y="0">A</tspan><tspan x="14.52" y="0">TE </tspan><tspan class="cls-23" x="20.18" y="0">P</tspan><tspan x="22.52" y="0">A</tspan><tspan class="cls-24" x="25.36" y="0">R</tspan><tspan x="27.93" y="0">TNERS</tspan></text></g><g id="Image"><rect class="cls-25" x="33.49" y="149.1" width="3.44" height="3.44"/><path class="cls-26" d="M64.59,232.63H60.67v-3.92h3.92Zm-3.44-.48h3v-3h-3Z" transform="translate(-27.41 -79.84)"/><rect class="cls-27" x="35.66" y="149.34" width="1.04" height="2.98"/><path class="cls-28" d="M62.63,217.11a6,6,0,0,0-6,5.81,6,6,0,0,1,3,.81,6,6,0,0,1,6,0,6,6,0,0,1,3-.81A6,6,0,0,0,62.63,217.11Z" transform="translate(-27.41 -79.84)"/><path class="cls-26" d="M65.52,223.94a5.84,5.84,0,0,0-5.78,0H59.5a5.77,5.77,0,0,0-2.88-.78l-.24-.25a6.26,6.26,0,0,1,12.51,0l-.24.25a5.71,5.71,0,0,0-2.88.78Zm-8.65-1.25a6.21,6.21,0,0,1,2.75.77,6.3,6.3,0,0,1,6,0,6.21,6.21,0,0,1,2.75-.77,5.78,5.78,0,0,0-11.52,0Z" transform="translate(-27.41 -79.84)"/><path class="cls-29" d="M59.34,222.89a6.57,6.57,0,0,0-2.08-.53,5.52,5.52,0,0,1,4.27-4.74A10.37,10.37,0,0,0,59.34,222.89Z" transform="translate(-27.41 -79.84)"/><path class="cls-29" d="M65.92,222.89a6.56,6.56,0,0,1,2.09-.53,5.54,5.54,0,0,0-4.28-4.74A10.37,10.37,0,0,1,65.92,222.89Z" transform="translate(-27.41 -79.84)"/><path class="cls-26" d="M62.63,229.19a.27.27,0,0,1-.21-.12l-3-5.22.42-.24,2.8,4.86,2.81-4.86.41.24-3,5.22A.24.24,0,0,1,62.63,229.19Z" transform="translate(-27.41 -79.84)"/><rect class="cls-26" x="59.38" y="221.68" width="0.48" height="8.51" transform="translate(-169.61 28.32) rotate(-44.95)"/><rect class="cls-26" x="61.38" y="225.69" width="8.52" height="0.48" transform="translate(-168.03 32.89) rotate(-45.04)"/></g></g><g id="Certifications"><g id="Description-2" data-name="Description"><text class="cls-3" transform="translate(207.7 147.37) scale(0.58)"><tspan class="cls-30">M</tspan><tspan class="cls-10" x="2.8" y="0">y</tspan><tspan x="4.31" y="0" xml:space="preserve"> end-clie</tspan><tspan class="cls-6" x="15.71" y="0">n</tspan><tspan x="17.38" y="0">ts include Ellie </tspan><tspan class="cls-31" x="37.22" y="0">M</tspan><tspan x="40.01" y="0">ae, </tspan><tspan class="cls-32" x="44.57" y="0">L</tspan><tspan x="46.05" y="0">eidos </tspan><tspan class="cls-33" x="53.89" y="0">H</tspan><tspan x="56.15" y="0">ealth, Philips </tspan><tspan class="cls-33" x="73.83" y="0">H</tspan><tspan x="76.09" y="0">ealthca</tspan><tspan class="cls-14" x="85.74" y="0">r</tspan><tspan x="86.81" y="0">e </tspan><tspan class="cls-34" x="0" y="3.81">Analytics, </tspan><tspan class="cls-6" x="13.75" y="3.81">M</tspan><tspan x="16.56" y="3.81">ic</tspan><tspan class="cls-35" x="18.77" y="3.81">r</tspan><tspan x="19.85" y="3.81">os</tspan><tspan class="cls-19" x="22.89" y="3.81">of</tspan><tspan x="24.57" y="3.81">t, Cis</tspan><tspan class="cls-36" x="32.19" y="3.81">c</tspan><tspan x="33.61" y="3.81">o and </tspan><tspan class="cls-37" x="41.71" y="3.81">B</tspan><tspan x="43.66" y="3.81">lue </tspan><tspan class="cls-6" x="48.43" y="3.81">S</tspan><tspan x="50.05" y="3.81">hield </tspan><tspan class="cls-19" x="57.28" y="3.81">o</tspan><tspan class="cls-38" x="58.97" y="3.81">f</tspan><tspan x="59.99" y="3.81" xml:space="preserve"> Cali</tspan><tspan class="cls-13" x="65.73" y="3.81">f</tspan><tspan x="66.77" y="3.81" xml:space="preserve">ornia.  </tspan></text><line class="cls-20" x1="207.7" y1="142.93" x2="261.81" y2="142.93"/><text class="cls-21" transform="translate(207.7 140.48)">CLIENTS<tspan class="cls-39" x="16.02" y="0"> </tspan><tspan x="16.81" y="0">A</tspan><tspan class="cls-40" x="19.65" y="0">R</tspan><tspan x="22.23" y="0">CHIVE</tspan></text></g><g id="Image-2" data-name="Image"><path class="cls-41" d="M227.39,217.11h-9.63a.5.5,0,0,0-.49.37l-2.39,8a.62.62,0,0,0,.59.79h14.21a.62.62,0,0,0,.59-.79l-2.39-8A.53.53,0,0,0,227.39,217.11Z" transform="translate(-27.41 -79.84)"/><path class="cls-26" d="M229.68,226.51H215.47a.87.87,0,0,1-.69-.35.84.84,0,0,1-.13-.75l2.39-8a.75.75,0,0,1,.72-.54h9.63a.76.76,0,0,1,.72.54l2.39,8a.87.87,0,0,1-.82,1.1Zm-11.92-9.16a.27.27,0,0,0-.26.2l-2.39,8a.39.39,0,0,0,.06.33.38.38,0,0,0,.3.15h14.21a.38.38,0,0,0,.3-.15.39.39,0,0,0,.06-.33l-2.39-8a.28.28,0,0,0-.26-.19Z" transform="translate(-27.41 -79.84)"/><path class="cls-42" d="M191.3,139.38H199a.55.55,0,0,1,.55.55v2a.36.36,0,0,1-.36.36h-8.05a.36.36,0,0,1-.36-.36v-2A.55.55,0,0,1,191.3,139.38Z"/><path class="cls-26" d="M226.57,222.39h-8a.62.62,0,0,1-.61-.61v-2a.8.8,0,0,1,.8-.8h7.68a.79.79,0,0,1,.79.8v2A.61.61,0,0,1,226.57,222.39Zm-7.86-2.92a.3.3,0,0,0-.3.3v2a.11.11,0,0,0,.11.11h8a.11.11,0,0,0,.11-.11v-2a.29.29,0,0,0-.29-.3Z" transform="translate(-27.41 -79.84)"/><rect class="cls-43" x="190.51" y="140.84" width="9.21" height="1.78"/><path class="cls-42" d="M190.43,141.36h9.41a.57.57,0,0,1,.57.57v2a.37.37,0,0,1-.37.37h-9.8a.37.37,0,0,1-.37-.37v-2A.57.57,0,0,1,190.43,141.36Z"/><path class="cls-26" d="M227.45,224.38h-9.8a.63.63,0,0,1-.63-.63v-2a.83.83,0,0,1,.83-.82h9.4a.83.83,0,0,1,.83.82v2A.63.63,0,0,1,227.45,224.38Zm-9.6-2.91a.3.3,0,0,0-.31.3v2a.11.11,0,0,0,.11.11h9.8a.11.11,0,0,0,.11-.11v-2a.3.3,0,0,0-.31-.3Z" transform="translate(-27.41 -79.84)"/><rect class="cls-43" x="189.67" y="142.89" width="11.02" height="2.56"/><path class="cls-42" d="M189.87,143.51H200.4a.57.57,0,0,1,.57.57V148a.37.37,0,0,1-.37.37H189.67a.37.37,0,0,1-.37-.37v-3.9A.57.57,0,0,1,189.87,143.51Z"/><path class="cls-26" d="M228,228.45H217.09a.63.63,0,0,1-.63-.63v-3.9a.82.82,0,0,1,.82-.82h10.54a.82.82,0,0,1,.82.82v3.9A.63.63,0,0,1,228,228.45Zm-10.73-4.84a.3.3,0,0,0-.3.31v3.9a.11.11,0,0,0,.11.11H228a.11.11,0,0,0,.11-.11v-3.9a.31.31,0,0,0-.3-.31Z" transform="translate(-27.41 -79.84)"/><rect class="cls-29" x="189.67" y="146.95" width="11.02" height="3.04"/><path class="cls-28" d="M230.18,225.31h-5.82a.73.73,0,0,0-.73.73v.41a1.09,1.09,0,0,1-.77,1.06,1.07,1.07,0,0,1-1.35-1V226a.73.73,0,0,0-.72-.73H215a.37.37,0,0,0-.36.37V231a.37.37,0,0,0,.36.37h15.22a.37.37,0,0,0,.37-.37v-5.27A.37.37,0,0,0,230.18,225.31Z" transform="translate(-27.41 -79.84)"/><path class="cls-26" d="M230.07,225.79v5.05h-15v-5.05h5.71a.25.25,0,0,1,.24.25v.45a1.54,1.54,0,0,0,1.54,1.54A1.52,1.52,0,0,0,223,228a1.55,1.55,0,0,0,1.12-1.52V226a.25.25,0,0,1,.25-.25h5.71m.11-.48h-5.82a.73.73,0,0,0-.73.73v.41a1.09,1.09,0,0,1-.77,1.06,1.45,1.45,0,0,1-.29,0,1.07,1.07,0,0,1-1.06-1.06V226a.73.73,0,0,0-.72-.73H215a.37.37,0,0,0-.36.37V231a.37.37,0,0,0,.36.37h15.22a.37.37,0,0,0,.37-.37v-5.27a.37.37,0,0,0-.37-.37Z" transform="translate(-27.41 -79.84)"/><rect class="cls-29" x="187.41" y="149.62" width="15.46" height="1.37"/><path class="cls-26" d="M227.9,229.36a1,1,0,1,1,1-1.05A1,1,0,0,1,227.9,229.36Zm0-1.71a.66.66,0,1,0,0,1.32.66.66,0,1,0,0-1.32Z" transform="translate(-27.41 -79.84)"/></g></g><g id="Clients"><g id="Description-3" data-name="Description"><text class="cls-3" transform="translate(126.8 147.37) scale(0.58)">I <tspan class="cls-36" x="1.62" y="0">c</tspan><tspan x="3.04" y="0">omp</tspan><tspan class="cls-44" x="8.98" y="0">et</tspan><tspan x="11.67" y="0">ed the</tspan><tspan class="cls-45" x="20.11" y="0"> </tspan><tspan class="cls-46" x="20.82" y="0">W</tspan><tspan x="23.79" y="0">eb </tspan><tspan class="cls-47" x="27.82" y="0">D</tspan><tspan class="cls-31" x="30.09" y="0">ev</tspan><tspan x="33.18" y="0">elopme</tspan><tspan class="cls-6" x="43.07" y="0">n</tspan><tspan x="44.75" y="0">t </tspan><tspan class="cls-48" x="46.59" y="0">I</tspan><tspan x="47.46" y="0">mmersi</tspan><tspan class="cls-5" x="57.28" y="0">v</tspan><tspan x="58.81" y="0">e </tspan><tspan class="cls-18" x="61.15" y="0">c</tspan><tspan x="62.56" y="0">ourse </tspan><tspan class="cls-6" x="70.74" y="0">a</tspan><tspan x="72.24" y="0">t </tspan><tspan class="cls-49" x="74.09" y="0">G</tspan><tspan x="76.25" y="0">ene</tspan><tspan class="cls-45" x="81.15" y="0">r</tspan><tspan x="82.24" y="0">al </tspan><tspan x="0" y="3.81">Assembl</tspan><tspan class="cls-10" x="11.28" y="3.81">y</tspan><tspan x="12.79" y="3.81" xml:space="preserve"> and am </tspan><tspan class="cls-36" x="23.93" y="3.81">c</tspan><tspan x="25.35" y="3.81">ertified in</tspan><tspan class="cls-50" x="38.29" y="3.81"> </tspan><tspan class="cls-51" x="38.92" y="3.81">Angula</tspan><tspan class="cls-52" x="48.23" y="3.81">r</tspan><tspan x="49.23" y="3.81">, </tspan><tspan class="cls-19" x="50.66" y="3.81">D</tspan><tspan class="cls-6" x="52.9" y="3.81">a</tspan><tspan x="54.41" y="3.81">ta</tspan><tspan class="cls-53" x="57.04" y="3.81"> </tspan><tspan class="cls-45" x="57.71" y="3.81">w</tspan><tspan x="60.1" y="3.81">a</tspan><tspan class="cls-35" x="61.62" y="3.81">r</tspan><tspan class="cls-16" x="62.7" y="3.81">ehousing and</tspan><tspan class="cls-54" x="80.41" y="3.81"> </tspan><tspan class="cls-55" x="81.05" y="3.81">J</tspan><tspan x="82.29" y="3.81">enkins </tspan><tspan x="0" y="7.63">CI.</tspan></text><line class="cls-20" x1="126.79" y1="142.93" x2="180.91" y2="142.93"/><text class="cls-21" transform="translate(126.79 140.48)">CE<tspan class="cls-24" x="4.91" y="0">R</tspan><tspan x="7.49" y="0">TIFIC</tspan><tspan class="cls-56" x="17.3" y="0">A</tspan><tspan x="19.86" y="0">TIONS</tspan></text></g><g id="Image-3" data-name="Image"><circle class="cls-57" cx="112.22" cy="138.6" r="1.58"/><path class="cls-58" d="M148,216.87a1.58,1.58,0,0,1,0,3.15" transform="translate(-27.41 -79.84)"/><path class="cls-57" d="M138.06,229.41a1.58,1.58,0,1,1-3.15,0,1.57,1.57,0,0,1,1.57-1.57" transform="translate(-27.41 -79.84)"/><line class="cls-58" x1="112.22" y1="137.03" x2="120.62" y2="137.03"/><line class="cls-58" x1="112.22" y1="140.18" x2="120.62" y2="140.18"/><line class="cls-58" x1="109.07" y1="151.14" x2="117.47" y2="151.14"/><path class="cls-59" d="M138.06,227.84h-1.58v.6a1,1,0,0,0,1,1h.61V218.26" transform="translate(-27.41 -79.84)"/><path class="cls-58" d="M146.46,220v9.39a1.58,1.58,0,0,1-1.58,1.58" transform="translate(-27.41 -79.84)"/><line class="cls-60" x1="114.53" y1="146.9" x2="116.1" y2="146.9"/><line class="cls-60" x1="113.15" y1="147.69" x2="117.47" y2="147.69"/><line class="cls-60" x1="113.15" y1="148.47" x2="117.47" y2="148.47"/><path class="cls-26" d="M143.56,223.69a.59.59,0,0,0,0,.08.55.55,0,0,1-.3.3.2.2,0,0,1-.11,0,.66.66,0,0,1-.3-.09l-.08,0-.09,0a.66.66,0,0,1-.3.09.22.22,0,0,1-.11,0,.5.5,0,0,1-.29-.3.59.59,0,0,1,0-.08l-.09,0h0v1.83l.94-.63.92.63v-1.83h0Z" transform="translate(-27.41 -79.84)"/><path class="cls-26" d="M142.73,221.93a.59.59,0,0,0-.59.59.58.58,0,0,0,.59.59.59.59,0,0,0,.59-.59A.6.6,0,0,0,142.73,221.93Z" transform="translate(-27.41 -79.84)"/><path class="cls-26" d="M144.1,222.52c0-.13-.22-.24-.26-.36s.07-.33,0-.44-.31-.07-.41-.15-.14-.31-.27-.35-.29.13-.42.13-.3-.17-.43-.13-.16.28-.26.35-.34,0-.42.15,0,.31,0,.44-.25.23-.25.36.21.24.25.36-.07.34,0,.45.31.06.42.14.14.31.26.36.29-.13.43-.13.3.17.42.13.16-.28.27-.36.34,0,.41-.14,0-.32,0-.45S144.1,222.66,144.1,222.52Zm-1.37.72a.72.72,0,0,1,0-1.44.72.72,0,0,1,0,1.44Z" transform="translate(-27.41 -79.84)"/></g></g><g id="Professional_Skills" data-name="Professional Skills"><g id="Description-4" data-name="Description"><text class="cls-3" transform="translate(287.17 147.33) scale(0.58)"><tspan class="cls-30">M</tspan><tspan class="cls-10" x="2.8" y="0">y</tspan><tspan x="4.31" y="0" xml:space="preserve"> skills a</tspan><tspan class="cls-14" x="13.78" y="0">r</tspan><tspan x="14.86" y="0">e in </tspan><tspan class="cls-61" x="20.37" y="0">F</tspan><tspan x="21.97" y="0">ull </tspan><tspan class="cls-62" x="25.88" y="0">S</tspan><tspan x="27.46" y="0">tack</tspan><tspan class="cls-47" x="33.14" y="0"> </tspan><tspan class="cls-63" x="33.85" y="0">W</tspan><tspan x="36.82" y="0">eb </tspan><tspan class="cls-47" x="40.86" y="0">D</tspan><tspan class="cls-12" x="43.12" y="0">e</tspan><tspan class="cls-64" x="44.68" y="0">v</tspan><tspan x="46.22" y="0">elopme</tspan><tspan class="cls-6" x="56.11" y="0">n</tspan><tspan x="57.78" y="0">t, </tspan><tspan class="cls-47" x="60.32" y="0">Q</tspan><tspan x="62.73" y="0">ualit</tspan><tspan class="cls-10" x="68.57" y="0">y</tspan><tspan class="cls-50" x="70.07" y="0"> </tspan><tspan x="70.7" y="0">Assu</tspan><tspan class="cls-45" x="77.11" y="0">r</tspan><tspan x="78.21" y="0">an</tspan><tspan class="cls-36" x="81.43" y="0">c</tspan><tspan x="82.85" y="0">e, </tspan><tspan class="cls-65" x="0" y="3.81">E</tspan><tspan class="cls-6" x="1.69" y="3.81">nt</tspan><tspan x="4.47" y="3.81">erprise</tspan><tspan class="cls-50" x="13.69" y="3.81"> </tspan><tspan class="cls-51" x="14.32" y="3.81">Applic</tspan><tspan class="cls-6" x="22.76" y="3.81">a</tspan><tspan x="24.27" y="3.81">tion d</tspan><tspan class="cls-31" x="32.04" y="3.81">ev</tspan><tspan x="35.14" y="3.81">elopme</tspan><tspan class="cls-6" x="45.03" y="3.81">n</tspan><tspan x="46.7" y="3.81">t and </tspan><tspan class="cls-19" x="54.19" y="3.81">D</tspan><tspan class="cls-6" x="56.44" y="3.81">a</tspan><tspan x="57.94" y="3.81">ta Scien</tspan><tspan class="cls-36" x="68.45" y="3.81">c</tspan><tspan x="69.87" y="3.81">e and </tspan><tspan class="cls-31" x="77.84" y="3.81">M</tspan><tspan x="80.64" y="3.81">achine </tspan><tspan class="cls-32" x="0" y="7.63">L</tspan><tspan x="1.48" y="7.63">earning. </tspan></text><line class="cls-20" x1="287.17" y1="142.89" x2="341.29" y2="142.89"/><text class="cls-21" transform="translate(287.17 140.44)">P<tspan class="cls-66" x="2.54" y="0">R</tspan><tspan x="5.12" y="0">OFESSIONA</tspan><tspan class="cls-67" x="27.82" y="0">L</tspan><tspan x="29.8" y="0" xml:space="preserve"> SKILLS</tspan></text></g><g id="Image-4" data-name="Image"><rect class="cls-25" x="275.05" y="146.83" width="2.42" height="3.31"/><path class="cls-26" d="M305.13,230.22h-2.9v-3.79h2.9Zm-2.42-.48h1.94v-2.83h-1.94Z" transform="translate(-27.41 -79.84)"/><path class="cls-68" d="M308.11,231.52h-8.87a.18.18,0,0,1-.07-.35l3.11-1.36h2.79l3.11,1.36a.18.18,0,0,1,.1.21A.17.17,0,0,1,308.11,231.52Zm-8-.36h7.15l-2.29-1h-2.57Z" transform="translate(-27.41 -79.84)"/><rect class="cls-41" x="271.83" y="151.5" width="8.86" height="1.37"/><path class="cls-26" d="M308.35,233H299V231.1h9.35Zm-8.87-.48h8.39v-.89h-8.39Z" transform="translate(-27.41 -79.84)"/><path class="cls-68" d="M299.79,226.12c-1.15-1-3.88-4-4-4.16l-.09-.09,0-3.46h2.87V219h-2.25l0,2.6c.47.52,2.85,3.1,3.87,4Z" transform="translate(-27.41 -79.84)"/><path class="cls-68" d="M307.38,226.12l-.42-.46c1-.93,3.39-3.51,3.87-4l0-2.6h-2.24v-.62h2.55a.32.32,0,0,1,.32.31l0,3a.32.32,0,0,1-.08.21C311.25,222.09,308.52,225.08,307.38,226.12Z" transform="translate(-27.41 -79.84)"/><path class="cls-28" d="M308.63,217.58a31.29,31.29,0,0,0-10,0s-1.62,7.59,3.8,10.44a2.55,2.55,0,0,0,2.4,0C310.26,225.17,308.63,217.58,308.63,217.58Z" transform="translate(-27.41 -79.84)"/><path class="cls-69" d="M303.64,228.68a2.9,2.9,0,0,1-1.37-.34c-5.6-3-4-10.75-4-10.83a.36.36,0,0,1,.26-.27,31.61,31.61,0,0,1,10.18,0,.36.36,0,0,1,.26.27c0,.08,1.61,7.88-4,10.83A2.9,2.9,0,0,1,303.64,228.68ZM299,217.88c-.2,1.24-.95,7.39,3.65,9.83a2.23,2.23,0,0,0,2.07,0c4.61-2.44,3.86-8.59,3.65-9.83A32.69,32.69,0,0,0,299,217.88Z" transform="translate(-27.41 -79.84)"/><path class="cls-70" d="M303.64,217.74a26,26,0,0,1,4.58.32c.21,1.39.84,7.28-3.6,9.62h0a.66.66,0,0,1-1-.58Z" transform="translate(-27.41 -79.84)"/></g></g></g></g><g id="Body"><g id="Image-5" data-name="Image"><g id="Footer-2" data-name="Footer"><text class="cls-71" transform="translate(239.7 90.41) scale(0.58)">I <tspan class="cls-13" x="2.16" y="0">f</tspan><tspan x="3.54" y="0">oll</tspan><tspan class="cls-72" x="7.83" y="0">o</tspan><tspan class="cls-73" x="10.09" y="0">w</tspan><tspan x="13.22" y="0" xml:space="preserve"> an agile design philosop</tspan><tspan class="cls-74" x="56.39" y="0">h</tspan><tspan class="cls-75" x="58.59" y="0">y</tspan><tspan x="60.6" y="0" xml:space="preserve"> and appl</tspan><tspan class="cls-75" x="76.67" y="0">y</tspan><tspan x="78.68" y="0" xml:space="preserve"> industr</tspan><tspan class="cls-76" x="92.19" y="0">y</tspan><tspan x="94.2" y="0" xml:space="preserve"> standa</tspan><tspan class="cls-13" x="107.01" y="0">r</tspan><tspan x="108.45" y="0">ds including </tspan><tspan x="1.33" y="5.15">object orie</tspan><tspan class="cls-77" x="20.38" y="5.15">n</tspan><tspan class="cls-78" x="22.61" y="5.15">t</tspan><tspan x="24.08" y="5.15">ed design and anal</tspan><tspan class="cls-79" x="56.82" y="5.15">y</tspan><tspan x="58.88" y="5.15">sis and ri</tspan><tspan class="cls-80" x="74.42" y="5.15">g</tspan><tspan x="76.5" y="5.15">o</tspan><tspan class="cls-81" x="78.8" y="5.15">r</tspan><tspan x="80.23" y="5.15">ous </tspan><tspan class="cls-78" x="87.52" y="5.15">t</tspan><tspan x="88.99" y="5.15" xml:space="preserve">esting.  I use a sui</tspan><tspan class="cls-78" x="120.03" y="5.15">t</tspan><tspan x="121.5" y="5.15">e </tspan><tspan class="cls-82" x="124.61" y="5.15">o</tspan><tspan class="cls-83" x="126.86" y="5.15">f</tspan><tspan x="128.22" y="5.15"> </tspan></text><text class="cls-84" transform="translate(251.14 85.99)">WEB DESIGN</text></g><g id="Content"><path class="cls-85" d="M372.59,150.15c-.34,3.16-50.48.65-67.71.65s-67.63.34-67.71-.65c-.31-3.48,48.57-12.38,67.71-12.38S372.74,148.66,372.59,150.15Z" transform="translate(-27.41 -79.84)"/><path class="cls-86" d="M236.69,1.21h78.66a2.14,2.14,0,0,1,2.14,2.14V55.5a0,0,0,0,1,0,0h-83a0,0,0,0,1,0,0V3.35A2.14,2.14,0,0,1,236.69,1.21Z"/><line class="cls-87" x1="235.28" y1="7.95" x2="316.77" y2="7.95"/><path class="cls-2" d="M264.56,84.64a1.22,1.22,0,0,1,.08-.43,1.11,1.11,0,0,1,.23-.36,1,1,0,0,1,.35-.23,1.08,1.08,0,0,1,.44-.09,1.07,1.07,0,0,1,.43.09.93.93,0,0,1,.35.23,1.13,1.13,0,0,1,.24.36,1,1,0,0,1,.09.43,1,1,0,0,1-.09.44,1.21,1.21,0,0,1-.24.35.93.93,0,0,1-.35.23,1.07,1.07,0,0,1-.43.09,1.08,1.08,0,0,1-.44-.09,1,1,0,0,1-.35-.23,1.18,1.18,0,0,1-.23-.35A1.23,1.23,0,0,1,264.56,84.64Z" transform="translate(-27.41 -79.84)"/><path class="cls-2" d="M268.32,84.64a1,1,0,0,1,.09-.43,1,1,0,0,1,.23-.36.86.86,0,0,1,.35-.23,1.07,1.07,0,0,1,.86,0,1,1,0,0,1,.36.23,1.13,1.13,0,0,1,.24.36,1.22,1.22,0,0,1,.08.43,1.23,1.23,0,0,1-.08.44,1.21,1.21,0,0,1-.24.35,1,1,0,0,1-.36.23,1.07,1.07,0,0,1-.86,0,.86.86,0,0,1-.35-.23,1,1,0,0,1-.23-.35A1,1,0,0,1,268.32,84.64Z" transform="translate(-27.41 -79.84)"/><path class="cls-2" d="M272.08,84.64a1,1,0,0,1,.09-.43,1,1,0,0,1,.23-.36.93.93,0,0,1,.35-.23,1,1,0,0,1,.43-.09,1.08,1.08,0,0,1,.44.09,1,1,0,0,1,.35.23,1.13,1.13,0,0,1,.24.36,1,1,0,0,1,.09.43,1,1,0,0,1-.09.44,1.21,1.21,0,0,1-.24.35,1,1,0,0,1-.35.23,1.08,1.08,0,0,1-.44.09,1,1,0,0,1-.43-.09.93.93,0,0,1-.35-.23,1,1,0,0,1-.23-.35A1,1,0,0,1,272.08,84.64Z" transform="translate(-27.41 -79.84)"/><line class="cls-88" x1="251.09" y1="4.79" x2="311.48" y2="4.79"/><polygon class="cls-89" points="334.05 64.98 217.65 64.98 233.22 57.86 318.48 57.86 334.05 64.98"/><path class="cls-90" d="M220,68.43H331.67a0,0,0,0,1,0,0v0a1.32,1.32,0,0,1-1.32,1.32h-109A1.32,1.32,0,0,1,220,68.43v0a0,0,0,0,1,0,0Z"/><path class="cls-91" d="M217.65,65H334a0,0,0,0,1,0,0v2.47a1.68,1.68,0,0,1-1.68,1.68h-113a1.68,1.68,0,0,1-1.68-1.68V65A0,0,0,0,1,217.65,65Z"/><rect class="cls-92" x="310.77" y="66.71" width="17.62" height="0.24"/><rect class="cls-93" x="280.45" y="72.06" width="21.01" height="55.1" transform="translate(163.94 310.72) rotate(-90)"/><line class="cls-94" x1="280.17" y1="15.52" x2="271.55" y2="15.52"/><line class="cls-95" x1="283.34" y1="19.73" x2="275.75" y2="19.73"/><line class="cls-95" x1="277.19" y1="24.55" x2="273.7" y2="24.55"/><path class="cls-96" d="M330.93,106.19" transform="translate(-27.41 -79.84)"/><path class="cls-96" d="M328.31,103.57" transform="translate(-27.41 -79.84)"/><rect class="cls-93" x="293.02" y="81.88" width="21.01" height="80.24" transform="translate(154.11 345.69) rotate(-90)"/><path class="cls-97" d="M318.44,110.11h6.7c4.14,0,6.32-2.93,7.21-6.32s10,.69,17.42.69a4.77,4.77,0,1,0,0-9.54c-7.41,0-16.52,4.06-17.42.69s-3.07-6.32-7.21-6.32h-6.7Zm32.85-10.4a1.53,1.53,0,1,1-1.52-1.53A1.53,1.53,0,0,1,351.29,99.71Z" transform="translate(-27.41 -79.84)"/><rect class="cls-98" x="291.09" y="9.33" width="2.17" height="20.8"/><line class="cls-87" x1="235.99" y1="52.66" x2="316.23" y2="52.66"/><line class="cls-87" x1="235.99" y1="31.65" x2="316.23" y2="31.65"/><line class="cls-87" x1="291.09" y1="30.27" x2="235.99" y2="30.27"/><line class="cls-87" x1="291.02" y1="9.47" x2="235.99" y2="9.47"/><rect class="cls-99" x="307.76" y="99.14" width="20.8" height="1.14" transform="translate(191.04 338.03) rotate(-90)"/><line class="cls-95" x1="286.75" y1="25.54" x2="291.02" y2="25.54"/><line class="cls-95" x1="288.2" y1="24.09" x2="291.02" y2="24.09"/><line class="cls-95" x1="286.75" y1="18.28" x2="291.02" y2="18.28"/><line class="cls-95" x1="288.2" y1="19.73" x2="291.02" y2="19.73"/><line class="cls-95" x1="288.2" y1="15.52" x2="291.02" y2="15.52"/></g></g><g id="Skills"><g id="CarouselButtons"><path class="cls-100" d="M29.61,124.85a.27.27,0,0,1,.08-.18.26.26,0,0,1,.34,0l1.22,1.38,1.26-1.38a.23.23,0,0,1,.33,0,.24.24,0,0,1,0,.33l-1.62,1.76L29.67,125A.31.31,0,0,1,29.61,124.85Z" transform="translate(-27.41 -79.84)"/><path class="cls-100" d="M27.41,125.32a3.86,3.86,0,1,1,3.86,3.85A3.86,3.86,0,0,1,27.41,125.32Zm7.24,0a3.38,3.38,0,1,0-3.38,3.38A3.39,3.39,0,0,0,34.65,125.32Z" transform="translate(-27.41 -79.84)"/><g class="cls-101"><path class="cls-102" d="M29.62,117a.22.22,0,0,1,.06-.15L31.29,115l1.57,1.76a.24.24,0,0,1,0,.33.23.23,0,0,1-.33,0l-1.22-1.37L30,117.11a.23.23,0,0,1-.41-.16Z" transform="translate(-27.41 -79.84)"/><path class="cls-102" d="M27.41,116.48a3.86,3.86,0,1,1,3.86,3.86A3.86,3.86,0,0,1,27.41,116.48Zm7.24,0a3.38,3.38,0,1,0-3.38,3.38A3.39,3.39,0,0,0,34.65,116.48Z" transform="translate(-27.41 -79.84)"/></g></g><g id="WebDesignIcon"><rect class="cls-103" x="23.93" y="59.3" width="18.68" height="13.71" rx="1.52" ry="1.52"/><path class="cls-93" d="M56.39,139.21h8.17a.43.43,0,0,1,.43.43v15.64a.43.43,0,0,1-.43.43H56.39a0,0,0,0,1,0,0V139.21A0,0,0,0,1,56.39,139.21Z" transform="translate(180.74 6.93) rotate(90)"/><polyline class="cls-103" points="30.22 75.9 30.22 73.01 36.33 73.01 36.33 75.84"/><line class="cls-103" x1="28.56" y1="75.64" x2="37.99" y2="75.64"/><line class="cls-103" x1="23.79" y1="62.37" x2="42.66" y2="62.37"/><line class="cls-103" x1="25.83" y1="61.02" x2="36.63" y2="61.02"/><line class="cls-103" x1="37.73" y1="61.02" x2="38.86" y2="61.02"/><line class="cls-103" x1="39.59" y1="61.02" x2="40.72" y2="61.02"/></g><g id="GraphicIcon"><rect class="cls-104" x="24.15" y="2.5" width="18.68" height="16.32" rx="1.52" ry="1.52"/><path class="cls-104" d="M52.34,98l8.23-7.16a1.53,1.53,0,0,1,2.09.09l7.15,7.29" transform="translate(-27.41 -79.84)"/><line class="cls-104" x1="30.98" y1="12.88" x2="36.92" y2="18.82"/><path class="cls-28" d="M60.4,90.63a1.78,1.78,0,0,1,2.45.1l6.3,6.43h0V83.87a.44.44,0,0,0-.44-.43H53.09a.44.44,0,0,0-.44.43V97.14a.48.48,0,0,0,0,.18Z" transform="translate(-27.41 -79.84)"/></g><g id="WebDevIcon"><rect class="cls-28" x="54.87" y="109.78" width="11.53" height="16.51" rx="0.43" ry="0.43" transform="translate(151.26 -22.45) rotate(90)"/><rect class="cls-104" x="23.93" y="31.34" width="18.68" height="13.71" rx="1.52" ry="1.52"/><polyline class="cls-104" points="30.26 36.34 31.83 37.82 30.26 39.19"/><line class="cls-104" x1="33.4" y1="38.55" x2="36.27" y2="38.55"/><polyline class="cls-104" points="30.22 47.93 30.22 45.05 36.33 45.05 36.33 47.87"/><line class="cls-104" x1="28.56" y1="47.68" x2="37.99" y2="47.68"/></g><g id="GraphicDesign"><text class="cls-71" transform="translate(49.09 11.13) scale(0.58)"><tspan class="cls-105">T</tspan><tspan x="1.92" y="0">o c</tspan><tspan class="cls-81" x="7.12" y="0">r</tspan><tspan x="8.55" y="0">e</tspan><tspan class="cls-77" x="10.69" y="0">a</tspan><tspan class="cls-78" x="12.69" y="0">t</tspan><tspan x="14.16" y="0">e the art</tspan><tspan class="cls-72" x="29.13" y="0">w</tspan><tspan x="32.31" y="0">ork </tspan><tspan class="cls-13" x="39.21" y="0">f</tspan><tspan x="40.59" y="0">o</tspan><tspan class="cls-8" x="42.89" y="0">r</tspan><tspan x="44.29" y="0"> </tspan><tspan class="cls-74" x="45.27" y="0">m</tspan><tspan class="cls-76" x="48.56" y="0">y</tspan><tspan class="cls-106" x="50.57" y="0" xml:space="preserve"> si</tspan><tspan class="cls-11" x="54.32" y="0">t</tspan><tspan x="55.79" y="0">es, I use </tspan><tspan class="cls-107" x="70.87" y="0">I</tspan><tspan x="72.03" y="0">llust</tspan><tspan class="cls-108" x="79.52" y="0">ra</tspan><tspan class="cls-78" x="82.99" y="0">t</tspan><tspan x="84.46" y="0">o</tspan><tspan class="cls-8" x="86.76" y="0">r</tspan><tspan x="88.17" y="0"> </tspan><tspan class="cls-78" x="89.14" y="0">t</tspan><tspan x="90.61" y="0">o d</tspan><tspan class="cls-108" x="96.15" y="0">ra</tspan><tspan class="cls-73" x="99.63" y="0">w </tspan><tspan x="103.65" y="0">wi</tspan><tspan class="cls-109" x="107.87" y="0">r</tspan><tspan class="cls-48" x="109.31" y="0">e</tspan><tspan x="111.41" y="0">f</tspan><tspan class="cls-108" x="112.85" y="0">r</tspan><tspan x="114.31" y="0">ames,</tspan><tspan class="cls-73" x="124.52" y="0"> </tspan><tspan class="cls-17" x="125.41" y="0">w</tspan><tspan x="128.59" y="0">eb l</tspan><tspan class="cls-81" x="134.96" y="0">ay</tspan><tspan x="138.98" y="0">outs, </tspan><tspan class="cls-78" x="0" y="5.15">t</tspan><tspan x="1.47" y="5.15">empl</tspan><tspan class="cls-77" x="10.22" y="5.15">a</tspan><tspan class="cls-11" x="12.23" y="5.15">t</tspan><tspan x="13.7" y="5.15">es, i</tspan><tspan class="cls-110" x="20.52" y="5.15">c</tspan><tspan x="22.41" y="5.15">ons and s</tspan><tspan class="cls-110" x="38.98" y="5.15">c</tspan><tspan x="40.87" y="5.15">enes </tspan><tspan class="cls-111" x="50.13" y="5.15">f</tspan><tspan x="51.51" y="5.15">o</tspan><tspan class="cls-8" x="53.81" y="5.15">r</tspan><tspan x="55.22" y="5.15" xml:space="preserve"> anim</tspan><tspan class="cls-77" x="64.84" y="5.15">a</tspan><tspan x="66.84" y="5.15" xml:space="preserve">tion.  I then use anim</tspan><tspan class="cls-112" x="103.91" y="5.15">at</tspan><tspan x="105.91" y="5.15">ion </tspan><tspan class="cls-78" x="114.01" y="5.15">t</tspan><tspan x="115.48" y="5.15">echniques </tspan><tspan class="cls-78" x="134.47" y="5.15">t</tspan><tspan x="135.94" y="5.15">o bring the </tspan><tspan x="0" y="10.29">s</tspan><tspan class="cls-110" x="1.76" y="10.29">c</tspan><tspan x="3.65" y="10.29">enes </tspan><tspan class="cls-78" x="12.91" y="10.29">t</tspan><tspan x="14.38" y="10.29">o li</tspan><tspan class="cls-13" x="19.66" y="10.29">f</tspan><tspan x="21.04" y="10.29">e, f</tspan><tspan class="cls-108" x="26.52" y="10.29">r</tspan><tspan x="27.99" y="10.29">ame-</tspan><tspan class="cls-81" x="36.99" y="10.29">b</tspan><tspan x="39.2" y="10.29">y-f</tspan><tspan class="cls-108" x="44.24" y="10.29">r</tspan><tspan x="45.7" y="10.29">ame. </tspan><tspan class="cls-113" x="55.14" y="10.29"> </tspan><tspan class="cls-110" x="55.99" y="10.29">T</tspan><tspan x="58.36" y="10.29">he end </tspan><tspan class="cls-109" x="71.36" y="10.29">r</tspan><tspan x="72.79" y="10.29">esult is a beautiful, pi</tspan><tspan class="cls-114" x="110.29" y="10.29">x</tspan><tspan x="112.29" y="10.29">el-per</tspan><tspan class="cls-13" x="122.81" y="10.29">f</tspan><tspan x="124.19" y="10.29">ect art</tspan><tspan class="cls-72" x="135.72" y="10.29">w</tspan><tspan x="138.9" y="10.29">ork th</tspan><tspan class="cls-77" x="149.54" y="10.29">a</tspan><tspan x="151.55" y="10.29">t adds </tspan><tspan x="0" y="15.44">flai</tspan><tspan class="cls-8" x="5.49" y="15.44">r</tspan><tspan x="6.9" y="15.44" xml:space="preserve"> and </tspan><tspan class="cls-115" x="15.4" y="15.44">e</tspan><tspan class="cls-116" x="17.49" y="15.44">v</tspan><tspan x="19.53" y="15.44">o</tspan><tspan class="cls-32" x="21.83" y="15.44">k</tspan><tspan x="23.87" y="15.44">es the sens</tspan><tspan class="cls-77" x="43.49" y="15.44">at</tspan><tspan x="45.5" y="15.44">ions </tspan><tspan class="cls-78" x="55.36" y="15.44">t</tspan><tspan x="56.83" y="15.44">o </tspan><tspan class="cls-78" x="60.1" y="15.44">t</tspan><tspan x="61.57" y="15.44">ell the tale </tspan><tspan class="cls-19" x="81.14" y="15.44">o</tspan><tspan class="cls-83" x="83.39" y="15.44">f</tspan><tspan x="84.75" y="15.44"> </tspan><tspan class="cls-117" x="85.72" y="15.44">m</tspan><tspan class="cls-76" x="89.01" y="15.44">y</tspan><tspan x="91.02" y="15.44" xml:space="preserve"> s</tspan><tspan class="cls-78" x="93.75" y="15.44">t</tspan><tspan x="95.22" y="15.44">ories.</tspan></text><text class="cls-118" transform="translate(49.09 6.83)">GRAPHIC DESIGN</text></g><g id="WebDevelopment"><text class="cls-71" transform="translate(49.09 37.48) scale(0.58)"><tspan class="cls-119">M</tspan><tspan class="cls-75" x="3.74" y="0">y</tspan><tspan x="5.75" y="0"> </tspan><tspan class="cls-48" x="6.72" y="0">e</tspan><tspan x="8.83" y="0">xperien</tspan><tspan class="cls-110" x="22.22" y="0">c</tspan><tspan x="24.11" y="0">e includes c</tspan><tspan class="cls-109" x="44.74" y="0">r</tspan><tspan x="46.17" y="0">e</tspan><tspan class="cls-112" x="48.31" y="0">a</tspan><tspan x="50.31" y="0">ting single pa</tspan><tspan class="cls-110" x="73.77" y="0">g</tspan><tspan x="75.85" y="0">e </tspan><tspan class="cls-120" x="78.95" y="0">F</tspan><tspan class="cls-109" x="81.06" y="0">r</tspan><tspan x="82.49" y="0">o</tspan><tspan class="cls-112" x="84.79" y="0">n</tspan><tspan x="87.02" y="0">t </tspan><tspan class="cls-65" x="89.48" y="0">E</tspan><tspan x="91.73" y="0">nd applic</tspan><tspan class="cls-112" x="107.74" y="0">at</tspan><tspan class="cls-106" x="109.75" y="0">ions using HTML, CSS,</tspan><tspan class="cls-54" x="151.19" y="0"> </tspan><tspan class="cls-121" x="152.05" y="0">J</tspan><tspan x="153.69" y="0">s, </tspan><tspan class="cls-122" x="0" y="5.15">Angula</tspan><tspan class="cls-123" x="12.42" y="5.15">r</tspan><tspan class="cls-121" x="13.63" y="5.15">J</tspan><tspan x="15.27" y="5.15">s and </tspan><tspan class="cls-50" x="25.53" y="5.15">R</tspan><tspan x="27.96" y="5.15">eact,</tspan><tspan class="cls-73" x="36.48" y="5.15"> </tspan><tspan class="cls-72" x="37.37" y="5.15">w</tspan><tspan x="40.55" y="5.15">ebsi</tspan><tspan class="cls-78" x="47.73" y="5.15">t</tspan><tspan x="49.2" y="5.15">es in</tspan><tspan class="cls-54" x="57.34" y="5.15"> </tspan><tspan class="cls-124" x="58.2" y="5.15">J</tspan><tspan class="cls-125" x="59.84" y="5.15">av</tspan><tspan x="63.89" y="5.15">a and</tspan><tspan class="cls-50" x="73.45" y="5.15"> </tspan><tspan x="74.28" y="5.15">AS</tspan><tspan class="cls-126" x="79.26" y="5.15">P</tspan><tspan x="81.36" y="5.15">.NE</tspan><tspan class="cls-113" x="87.69" y="5.15">T</tspan><tspan x="89.97" y="5.15" xml:space="preserve"> and bac</tspan><tspan class="cls-121" x="104.7" y="5.15">k</tspan><tspan x="106.76" y="5.15">-end applic</tspan><tspan class="cls-112" x="126.4" y="5.15">a</tspan><tspan x="128.4" y="5.15">tions using </tspan><tspan class="cls-127" x="148.63" y="5.15">N</tspan><tspan x="151.65" y="5.15">ode.</tspan><tspan class="cls-121" x="159.3" y="5.15">J</tspan><tspan x="160.94" y="5.15">s, </tspan><tspan class="cls-128" x="0" y="10.29">R</tspan><tspan x="2.49" y="10.29">u</tspan><tspan class="cls-81" x="4.75" y="10.29">b</tspan><tspan class="cls-75" x="6.96" y="10.29">y</tspan><tspan x="8.97" y="10.29" xml:space="preserve"> on </tspan><tspan class="cls-129" x="15.47" y="10.29">R</tspan><tspan x="18.01" y="10.29">ails, </tspan><tspan class="cls-127" x="25.72" y="10.29">M</tspan><tspan x="29.43" y="10.29">on</tspan><tspan class="cls-110" x="33.99" y="10.29">g</tspan><tspan x="36.06" y="10.29">oose and </tspan><tspan class="cls-127" x="53.06" y="10.29">M</tspan><tspan x="56.77" y="10.29">on</tspan><tspan class="cls-110" x="61.33" y="10.29">g</tspan><tspan class="cls-127" x="63.4" y="10.29">o</tspan><tspan x="65.64" y="10.29">DB/ </tspan><tspan class="cls-130" x="74.15" y="10.29">P</tspan><tspan x="76.53" y="10.29">ost</tspan><tspan class="cls-48" x="82.08" y="10.29">G</tspan><tspan class="cls-109" x="84.95" y="10.29">r</tspan><tspan class="cls-131" x="86.39" y="10.29">e</tspan><tspan class="cls-132" x="88.48" y="10.29" xml:space="preserve">Sql.  Some </tspan><tspan class="cls-48" x="107.77" y="10.29">e</tspan><tspan x="109.88" y="10.29">xamples a</tspan><tspan class="cls-109" x="127.51" y="10.29">r</tspan><tspan x="128.94" y="10.29">e a global </tspan><tspan class="cls-74" x="146.73" y="10.29">h</tspan><tspan x="148.93" y="10.29">ybrid </tspan><tspan x="0" y="15.44">cloud s</tspan><tspan class="cls-78" x="12.48" y="15.44">t</tspan><tspan x="13.95" y="15.44">o</tspan><tspan class="cls-108" x="16.25" y="15.44">r</tspan><tspan x="17.71" y="15.44">a</tspan><tspan class="cls-110" x="19.74" y="15.44">g</tspan><tspan x="21.82" y="15.44">e solution </tspan><tspan class="cls-13" x="40.33" y="15.44">f</tspan><tspan x="41.71" y="15.44">o</tspan><tspan class="cls-133" x="44.01" y="15.44">r</tspan><tspan x="45.42" y="15.44" xml:space="preserve"> healthca</tspan><tspan class="cls-109" x="61.51" y="15.44">r</tspan><tspan x="62.95" y="15.44">e analytics and a cloud n</tspan><tspan class="cls-44" x="106.21" y="15.44">e</tspan><tspan x="108.33" y="15.44">t</tspan><tspan class="cls-17" x="109.82" y="15.44">w</tspan><tspan x="112.99" y="15.44">ork </tspan><tspan class="cls-110" x="119.89" y="15.44">c</tspan><tspan x="121.79" y="15.44">on</tspan><tspan class="cls-110" x="124.08" y="15.44">f</tspan><tspan x="126.3" y="15.44">igur</tspan><tspan class="cls-108" x="133.07" y="15.44">at</tspan><tspan x="136.54" y="15.44">ion FE </tspan><tspan class="cls-78" x="150.18" y="15.44">t</tspan><tspan x="151.65" y="15.44">ool.</tspan></text><text class="cls-118" transform="translate(49.09 33.18)">WEB DEVE<tspan class="cls-134" x="25.78" y="0">L</tspan><tspan x="28.32" y="0">OPMEN</tspan><tspan class="cls-135" x="47.12" y="0">T</tspan></text></g><g id="WebDesign"><text class="cls-71" transform="translate(49.09 64.13) scale(0.58)">I <tspan class="cls-13" x="2.16" y="0">f</tspan><tspan x="3.54" y="0">oll</tspan><tspan class="cls-72" x="7.83" y="0">o</tspan><tspan class="cls-73" x="10.09" y="0">w</tspan><tspan x="13.22" y="0" xml:space="preserve"> an agile design philosop</tspan><tspan class="cls-74" x="56.39" y="0">h</tspan><tspan class="cls-75" x="58.59" y="0">y</tspan><tspan x="60.6" y="0" xml:space="preserve"> and appl</tspan><tspan class="cls-75" x="76.67" y="0">y</tspan><tspan x="78.68" y="0" xml:space="preserve"> industr</tspan><tspan class="cls-76" x="92.19" y="0">y</tspan><tspan x="94.2" y="0" xml:space="preserve"> standa</tspan><tspan class="cls-13" x="107.01" y="0">r</tspan><tspan x="108.45" y="0">ds including object orie</tspan><tspan class="cls-77" x="149.57" y="0">n</tspan><tspan class="cls-78" x="151.8" y="0">t</tspan><tspan x="153.27" y="0">ed </tspan><tspan x="0" y="5.15">design and anal</tspan><tspan class="cls-119" x="27.36" y="5.15">y</tspan><tspan x="29.43" y="5.15">sis and ri</tspan><tspan class="cls-110" x="44.97" y="5.15">g</tspan><tspan x="47.04" y="5.15">o</tspan><tspan class="cls-109" x="49.34" y="5.15">r</tspan><tspan x="50.78" y="5.15">ous </tspan><tspan class="cls-78" x="58.06" y="5.15">t</tspan><tspan x="59.53" y="5.15" xml:space="preserve">esting.  I use a sui</tspan><tspan class="cls-78" x="90.58" y="5.15">t</tspan><tspan x="92.05" y="5.15">e </tspan><tspan class="cls-19" x="95.16" y="5.15">o</tspan><tspan class="cls-83" x="97.41" y="5.15">f</tspan><tspan x="98.76" y="5.15" xml:space="preserve"> d</tspan><tspan class="cls-115" x="102.01" y="5.15">e</tspan><tspan class="cls-5" x="104.09" y="5.15">v</tspan><tspan x="106.14" y="5.15">elopme</tspan><tspan class="cls-77" x="119.32" y="5.15">n</tspan><tspan x="121.55" y="5.15">t </tspan><tspan class="cls-11" x="124.01" y="5.15">t</tspan><tspan x="125.48" y="5.15">ool </tspan><tspan class="cls-13" x="132.05" y="5.15">f</tspan><tspan x="133.43" y="5.15">o</tspan><tspan class="cls-8" x="135.73" y="5.15">r</tspan><tspan x="137.13" y="5.15" xml:space="preserve"> c</tspan><tspan class="cls-109" x="140.03" y="5.15">r</tspan><tspan x="141.47" y="5.15">oss pl</tspan><tspan class="cls-112" x="151.52" y="5.15">at</tspan><tspan class="cls-13" x="153.52" y="5.15">f</tspan><tspan x="156.28" y="5.15">orm </tspan><tspan x="0" y="10.29">design including</tspan><tspan class="cls-108" x="28.63" y="10.29"> </tspan><tspan class="cls-136" x="29.57" y="10.29">W</tspan><tspan x="33.53" y="10.29">e</tspan><tspan class="cls-115" x="35.67" y="10.29">b</tspan><tspan class="cls-137" x="37.88" y="10.29">S</tspan><tspan class="cls-78" x="39.99" y="10.29">t</tspan><tspan x="41.46" y="10.29">orm,</tspan><tspan class="cls-138" x="49.54" y="10.29"> </tspan><tspan x="50.36" y="10.29">Visual </tspan><tspan class="cls-137" x="62.17" y="10.29">S</tspan><tspan x="64.27" y="10.29">tudio and </tspan><tspan class="cls-110" x="82.1" y="10.29">D</tspan><tspan class="cls-109" x="85.11" y="10.29">r</tspan><tspan x="86.54" y="10.29">ea</tspan><tspan class="cls-139" x="90.71" y="10.29">m</tspan><tspan class="cls-136" x="93.86" y="10.29">W</tspan><tspan x="97.82" y="10.29">e</tspan><tspan class="cls-125" x="99.95" y="10.29">a</tspan><tspan class="cls-5" x="101.93" y="10.29">v</tspan><tspan x="103.98" y="10.29">e</tspan><tspan class="cls-140" x="106.12" y="10.29">r</tspan><tspan x="107.45" y="10.29">.</tspan></text><text class="cls-141" transform="translate(49.09 59.83)">WEB DESIGN</text></g><g id="ClickIcon"><ellipse class="cls-142" cx="115.28" cy="57.76" rx="6.04" ry="5.58"/><ellipse class="cls-143" cx="115.28" cy="58.67" rx="6.04" ry="5.58"/><ellipse class="cls-144" cx="113.89" cy="57.28" rx="6.04" ry="5.58"/><path class="cls-145" d="M146.71,155.92a6.69,6.69,0,0,1-6.2-3.41c-1-1.48-1.39-4.44.2-5.89a5.07,5.07,0,0,1,.44-.36l.6-.44-.22-7.84a1.37,1.37,0,1,1,2.73,0l.25,6.76.11-1.1a1.32,1.32,0,0,1,1.3-1.36,1.28,1.28,0,0,1,1.26,1.37v.5a1.33,1.33,0,0,1,1.36-1.14,1.42,1.42,0,0,1,1.44,1.37V145c0-.53.88-.55.89-.55a1.18,1.18,0,0,1,1.19,1.13c0,1.23-.13,6.09-.78,7.39A4.43,4.43,0,0,1,146.71,155.92Z" transform="translate(-27.41 -79.84)"/><path class="cls-146" d="M142.89,136.88a1,1,0,0,1,1,1.11l.25,6.77a.35.35,0,0,0,.34.35h0a.36.36,0,0,0,.36-.3l.18-1.09s0,0,0-.06a.92.92,0,0,1,.9-1,.88.88,0,0,1,.86,1v.73a.36.36,0,0,0,.72,0,1,1,0,0,1,2.08,0V146a.4.4,0,0,0,.8,0V145c0-.07.32-.16.49-.16a.78.78,0,0,1,.79.73c0,1.62-.18,6.09-.74,7.21a4.06,4.06,0,0,1-4.21,2.71,6.34,6.34,0,0,1-5.87-3.23c-.89-1.33-1.27-4.09.14-5.38.15-.14.29-.24.4-.33l.06,2.53a.35.35,0,0,0,.35.36h0a.36.36,0,0,0,.35-.37L141.93,138a1,1,0,0,1,1-1.09m0-.8a1.79,1.79,0,0,0-1.76,1.89l.16,7.69-.38.28c-.13.1-.29.22-.47.38-1.75,1.59-1.33,4.81-.27,6.41a7.13,7.13,0,0,0,6.54,3.59,4.85,4.85,0,0,0,4.93-3.15c.79-1.58.82-7.51.82-7.57a1.58,1.58,0,0,0-1.59-1.53,1.55,1.55,0,0,0-.51.08,1.85,1.85,0,0,0-1.82-1.53,1.89,1.89,0,0,0-1.09.35,1.6,1.6,0,0,0-1.53-1.08,1.64,1.64,0,0,0-1.1.41l-.16-4.34a1.77,1.77,0,0,0-1.77-1.88Z" transform="translate(-27.41 -79.84)"/><path class="cls-147" d="M151.72,153.61a4.06,4.06,0,0,1-4.21,2.71,6.34,6.34,0,0,1-5.87-3.23c-.89-1.33-1.27-4.09.14-5.38.15-.14.29-.24.4-.33l.06,2.53a.35.35,0,0,0,.37.36.36.36,0,0,0,.35-.37l-.23-11.13a1,1,0,1,1,1.93,0l.25,6.77a.35.35,0,0,0,.34.35.37.37,0,0,0,.38-.3l.18-1.09s0,0,0-.06c0-.55,1.1-1,1.62-1s1.56.5,1.56,1v.73c0,.2-.55.36-.35.36s0-.16,0-.36c0-.54,1.14-1,1.67-1s1.67.43,1.67,1v1.57c0,.2.3.36.5.36s.5-.16.5-.36v-.93c0-.07-.59-.16-.42-.16.44,0,.34.35.34.73A28.14,28.14,0,0,1,151.72,153.61Z" transform="translate(-27.41 -79.84)"/><path class="cls-148" d="M137.11,137.94a5.59,5.59,0,0,1,11.17,0" transform="translate(-27.41 -79.84)"/><path class="cls-148" d="M139.11,138.14a3.59,3.59,0,0,1,7.17,0" transform="translate(-27.41 -79.84)"/></g><g id="Link"><text class="cls-149" transform="translate(143.78 94.86)">VIEW DE<tspan class="cls-150" x="14.79" y="0">T</tspan><tspan x="16.67" y="0">AILS</tspan></text><g id="Button"><path class="cls-151" d="M199.71,174.81a.17.17,0,0,1-.12-.05.16.16,0,0,1,0-.22l.91-.81-.91-.83a.16.16,0,0,1,0-.22.15.15,0,0,1,.22,0l1.17,1.06-1.17,1A.14.14,0,0,1,199.71,174.81Z" transform="translate(-27.41 -79.84)"/><path class="cls-151" d="M200,176.27a2.55,2.55,0,1,1,2.55-2.55A2.55,2.55,0,0,1,200,176.27Zm0-4.79a2.24,2.24,0,1,0,2.24,2.24A2.24,2.24,0,0,0,200,171.48Z" transform="translate(-27.41 -79.84)"/></g></g></g></g></g></g></g></g></svg>